<?xml version="1.0" encoding="utf-8"?>
<!-- Generator: Adobe Illustrator 25.0.0, SVG Export Plug-In . SVG Version: 6.00 Build 0)  -->
<svg version="1.1" id="Layer_1" xmlns="http://www.w3.org/2000/svg" xmlns:xlink="http://www.w3.org/1999/xlink" x="0px" y="0px"
	 viewBox="0 0 393.5 400.2" style="enable-background:new 0 0 393.5 400.2;" xml:space="preserve">
<style type="text/css">
	.st0{clip-path:url(#SVGID_2_);}
	.st1{fill:#F4F2F3;}
	.st2{fill:#F6C446;}
</style>
<g>
	<defs>
		<rect id="SVGID_1_" width="393.5" height="400.2"/>
	</defs>
	<clipPath id="SVGID_2_">
		<use xlink:href="#SVGID_1_"  style="overflow:visible;"/>
	</clipPath>
	<g class="st0">
		<polygon class="st1" points="92,79.2 -31.3,315.4 186.3,399.3 393.5,302.8 165.5,248.5 		"/>
		<circle class="st2" cx="129.2" cy="-52.1" r="101.7"/>
		<path d="M69.2-48.7c7,14.8,16.6,28.3,26.5,41.2c9.7,12.6,19.5,25,29,37.7s18.8,25.2,29.5,36.7c5.2,5.7,10.8,11,16.7,16
			c2.9,2.4,5.8,5,9.1,6.7c3.1,1.6,6.8,1.9,9.4-0.7c2.1-2.2,3-5.2,2.6-8.2c-0.5-3.6-2.9-6.5-5.5-8.8c-5.2-4.7-11.3-8.3-15.8-13.8
			c-1-1.3-1.9-2.6-2.6-4.1c-0.8-1.8-3.4-0.2-2.6,1.5c2.8,6,8.6,10.5,13.7,14.5c4.4,3.4,12,8.3,9.4,14.9c-1.2,3.2-4.3,3.7-7.1,2.2
			c-3.2-1.8-6.1-4-8.8-6.5c-5.7-4.8-11.1-9.9-16.1-15.4c-10.2-11-19.3-23-28.3-35S110,6,100.7-5.9C91-18.4,81.6-31.2,74.3-45.2
			c-0.9-1.7-1.7-3.4-2.5-5C71-52,68.4-50.5,69.2-48.7z"/>
		<path d="M113.1-35.9c14.7,20.3,32.3,38.3,52.1,53.6c9.9,7.6,20.3,14.5,31.1,20.8c5.3,3.1,10.7,6,16.2,8.8c2.9,1.5,5.8,2.9,8.7,4.3
			c2.6,1.2,5.8,2.2,7.9,4.1c0.8,0.7,2,2.2,0.8,3.1c-1,0.8-2.7,0.4-3.8,0.2c-3.4-0.7-6.8-1.3-10.2-2c-6.9-1.3-14-3.1-19.5-7.7
			c-1.5-1.2-3.6,0.9-2.1,2.1c5.1,4.3,11.2,6.4,17.6,7.8c3.3,0.7,6.6,1.3,9.9,1.9c2.7,0.5,5.8,1.7,8.5,0.7c2.3-0.7,3.6-3.2,2.8-5.5
			c0,0,0-0.1,0-0.1c-0.1-0.4-0.3-0.8-0.6-1.2c-1.7-2.6-4.6-3.8-7.4-5c-6-2.8-11.9-5.7-17.7-8.8c-22.9-12-43.9-27.1-62.6-45
			c-10.7-10.3-20.4-21.5-29.1-33.6C114.6-38.9,112-37.4,113.1-35.9z"/>
		<path d="M187.4,89.1c3.3,4.7,7.2,9,11.5,12.8c2.4,2.1,5,4.1,7.6,6c2.8,2.1,5.7,4.5,9,5.9c2.8,1.2,6.1,1.3,8.1-1.4s1.1-6.1-0.7-8.5
			c-2-2.6-4.9-4.4-7.3-6.7c-2.4-2.4-4.7-5-6.9-7.6c-4.9-5.8-9.6-12-15.6-16.8c-1.5-1.2-3.6,0.9-2.1,2.1c9.6,7.7,15.7,18.7,25,26.7
			c2.1,1.8,5.2,3.6,5.7,6.6c0.3,1.2-0.2,2.4-1.1,3.1c-1.2,0.7-2.7,0.3-3.9-0.2c-2.8-1.4-5.4-3.1-7.8-5.1c-2.4-1.8-4.8-3.5-7-5.5
			c-4.4-3.8-8.4-8.1-11.9-12.8C188.8,86.1,186.2,87.6,187.4,89.1z"/>
		<path d="M203.2,87.3c4.2,2.9,8.7,5.3,13.4,7.2c2.5,1.1,5.1,2.2,7.6,3.1c2.1,0.9,4.3,1.5,6.6,1.9c2.6,0.3,5.7-0.4,6.5-3.2
			c0.9-3-1.8-5.7-4-7.3c-6.4-4.7-13-9.1-19.5-13.6L191.7,60c-1.6-1.1-3.1,1.5-1.5,2.6l35.6,24.8l4.1,2.7c1.4,0.8,2.6,1.8,3.6,3
			c0.7,0.8,1.5,2.2,0.5,3c-1,0.5-2.1,0.6-3.1,0.4c-2-0.4-3.9-0.9-5.8-1.7c-2.3-0.8-4.5-1.7-6.8-2.7c-4.8-2-9.4-4.4-13.7-7.3
			C203.2,83.6,201.7,86.2,203.2,87.3z"/>
		<path d="M198.9,68.7c6,4,12.5,7.4,19.2,10.1c3.3,1.3,6.6,2.5,10.1,3.5c3.5,1.1,7.1,1.9,10.7,2.4c3,0.3,6.4-0.9,7.1-4.2
			c0.2-0.7,0.1-1.4-0.1-2.1c-0.3-0.8-0.8-1.3-1.6-1.6c-1.7-0.8-3.3-1.6-5-2.4c-6.8-3.3-13.5-6.8-20-10.6
			c-7.3-4.2-14.5-8.8-21.5-13.6c-1.6-1.1-3.1,1.5-1.5,2.6c15,10.3,30.9,19.4,47.4,27l-0.7-0.9c0.7,1.8-1.3,2.8-2.8,2.8
			c-2-0.1-4-0.4-6-1c-4-0.9-7.9-2.1-11.7-3.5c-7.8-2.8-15.1-6.5-22-11.1C198.8,65,197.3,67.6,198.9,68.7L198.9,68.7z"/>
		<path d="M236.7,139.3c-23,5.2-47-2.1-63.2-19.3c-1.3-1.4-3.4,0.7-2.1,2.1c17,17.9,42.1,25.5,66.1,20.1c0.8-0.2,1.3-1,1.1-1.9
			C238.3,139.5,237.5,139.1,236.7,139.3z"/>
		<path d="M261.7,150.7c-16.9,3.9-34.5,4-51.4,0.3c-17-3.6-33.1-10.7-47.2-20.8c-7.9-5.7-15-12.3-21.2-19.8
			c-1.2-1.5-3.3,0.7-2.1,2.1c11.4,13.6,25.7,24.5,41.8,32c16.1,7.5,33.5,11.7,51.3,12.1c10,0.2,20-0.8,29.7-3.1
			C264.4,153.2,263.6,150.3,261.7,150.7L261.7,150.7z"/>
		<path d="M52.8,483.7c-2.8-15.5-2.8-31.3-2.2-46.9c0.5-15.3,1.4-30.7,1.8-46c0.4-15.2,0.7-30.5,2.4-45.6c0.8-7.4,2-14.8,3.7-22.1
			c0.8-3.6,1.8-7.2,3-10.7c0.8-2.5,1.9-6.2,4.8-6.9c2.7-0.6,5.4,1.6,6.4,3.9c1.5,3.5,0.3,7.7-0.7,11.2c-1.9,6.1-4,12.4-4.1,18.9
			c0,1.4,0.1,2.9,0.4,4.3c0.3,1.9,3.2,1.1,2.9-0.8c-0.5-3.2-0.3-6.5,0.5-9.6c0.7-3.3,1.6-6.7,2.6-9.9c2-6.5,4.3-14.8-2.3-19.5
			c-2.4-1.9-5.8-2.1-8.4-0.5c-2.7,1.8-3.8,5-4.8,7.9c-2.4,7.4-4.2,15.1-5.4,22.8c-2.5,15.7-3.2,31.6-3.6,47.5
			c-0.2,7.8-0.3,15.6-0.6,23.4c-0.3,8.1-0.7,16.2-1.1,24.3c-0.7,16.5-1.1,33,1.1,49.4c0.3,1.9,0.6,3.9,0.9,5.8
			C50.3,486.5,53.2,485.7,52.8,483.7L52.8,483.7z"/>
		<path d="M81.2,448.2c0.3-27.1,4.9-54,13.6-79.6c4.3-12.7,9.5-25.2,15.5-37.2c3.1-6.2,6.3-12.2,9.7-18.2c1.4-2.4,2.9-4.7,3.1-7.5
			c0.2-2.5-1.2-4.9-3.8-5.2c-3.4-0.4-5.9,3-7.9,5.2c-2.3,2.4-4.7,4.8-6.9,7.2c-4.6,4.9-8.6,10.4-10.4,17c-0.2,0.8,0.4,1.6,1.2,1.8
			c0.7,0.1,1.4-0.3,1.7-1c1.4-5.6,4.7-10.3,8.6-14.6c1.9-2.1,3.9-4.1,5.8-6.1c0.9-1,1.9-1.9,2.8-2.9c0.9-1.2,2-2.2,3.2-3.1
			c0.8-0.5,2.2-1,2.7,0.2c0.3,1,0.2,2-0.2,2.9c-0.8,2.7-2.7,5.2-4.1,7.6c-3.2,5.7-6.3,11.5-9.2,17.5c-11.3,22.9-19.4,47.3-24.1,72.4
			c-2.6,14.4-4,29-4.1,43.6c0,0.8,0.7,1.5,1.5,1.5c0.7,0,1.3-0.6,1.3-1.3C81.2,448.3,81.2,448.3,81.2,448.2z"/>
		<path d="M69.4,303.3c0-5.2,0.6-10.4,1.8-15.5c0.6-2.8,1.4-5.6,2.3-8.3c0.9-3.1,2-6.1,3.2-9.1c0.8-1.7,2.4-4.9,4.8-4.1
			c3.3,1,2.4,5.6,1.7,8c-1.5,5.9-2.4,11.9-2.8,18c-0.6,6.9-0.9,13.9-2.8,20.5c-0.2,0.8,0.3,1.6,1.1,1.8c0.8,0.2,1.6-0.3,1.8-1.1
			c0,0,0,0,0-0.1c1.8-6.5,2.2-13.4,2.8-20.1c0.3-3.5,0.6-7,1.1-10.5c0.2-1.6,0.5-3.2,0.9-4.8c0.4-1.8,1-3.5,1.3-5.3
			c0.6-3.2,0.2-6.7-2.6-8.8c-2.4-1.7-5.7-1.2-7.6,1c-2.2,2.4-3.2,5.7-4.2,8.7c-1.1,3.2-2.2,6.4-3,9.7c-1.7,6.4-2.6,12.9-2.7,19.5
			C66.5,305.2,69.5,305.2,69.4,303.3L69.4,303.3z"/>
		<path d="M83.3,296.8c1.6-4.3,3.6-8.4,6-12.3c2.2-3.9,4.7-7.7,7.6-11.2c0.8-1.1,1.9-2,3.2-2.4c1.2-0.2,1.7,0.6,1.8,1.6
			c0.3,2.6-1.3,5.5-2.1,7.9l-7.3,20.4l-8.2,23c-0.7,1.8,2.2,2.6,2.9,0.8l16.3-45.5c0.9-2.5,2.1-5.4,1.2-8.1
			c-0.8-2.4-3.4-3.7-5.8-2.9c-0.3,0.1-0.6,0.2-0.9,0.4c-2.3,1.2-3.9,3.5-5.4,5.5s-3,4.3-4.4,6.6c-3,4.9-6,10-7.8,15.5
			C79.8,297.9,82.7,298.6,83.3,296.8L83.3,296.8z"/>
		<path d="M90.5,314.5c3-7.8,6.9-15.2,11.7-22c2.4-3.4,5-6.7,7.8-9.8c1.1-1.5,2.5-2.8,4.1-3.9c1.1-0.6,3.1-0.8,3.5,0.8l0.2-1.2
			c-9.1,15.9-16.9,32.6-23.2,49.8c-0.7,1.8,2.2,2.6,2.9,0.8c5.3-14.7,11.7-28.9,19.2-42.6c0.9-1.6,1.8-3.3,2.7-4.9
			c0.6-0.7,0.9-1.5,1.1-2.4c0-0.8-0.4-1.5-0.9-2.1c-1.8-2.2-5.1-2.1-7.4-0.7c-2.8,1.8-5.1,4.9-7.2,7.4c-2.3,2.8-4.4,5.6-6.4,8.6
			c-4.4,6.7-8.1,13.8-11,21.3C86.9,315.5,89.8,316.3,90.5,314.5L90.5,314.5z"/>
		<path d="M76.7,231.2c-17.6,7.4-31.4,21.5-38.4,39.2c-1.9,4.9-3.3,10.1-4,15.3c-0.2,0.8,0.2,1.6,1,1.8c0.8,0.2,1.6-0.2,1.8-1
			c0,0,0,0,0,0c2.6-18,12.4-34.2,27.1-44.9c4.1-3,8.5-5.5,13.2-7.5C79.3,233.4,78.5,230.5,76.7,231.2z"/>
		<path d="M90.5,207.4c-16.4,6.8-31.2,17.1-43.3,30.1C35.1,250.6,25.9,266,20,282.8c-3.3,9.5-5.3,19.4-6.1,29.4
			c-0.1,1.9,2.9,1.9,3,0c1.4-17.2,6.6-33.9,15.1-48.9c8.5-15.1,20.1-28.3,33.9-38.7c7.8-5.8,16.2-10.6,25.2-14.3
			C93.1,209.5,92.3,206.6,90.5,207.4z"/>
	</g>
</g>
</svg>
