<svg xmlns="http://www.w3.org/2000/svg" xmlns:xlink="http://www.w3.org/1999/xlink" viewBox="0 0 424.8 639.48"><defs><clipPath id="a" transform="translate(31.3 153.8)"><rect width="393.5" height="400.2" style="fill:none"/></clipPath></defs><g style="clip-path:url(#a)"><polygon points="123.3 233 0 469.2 217.6 553.1 424.8 456.6 196.8 402.3 123.3 233" style="fill:#f4f2f3"/><circle cx="160.5" cy="101.7" r="101.7" style="fill:#f6c446"/><path d="M69.2-48.7c7,14.8,16.6,28.3,26.5,41.2,9.7,12.6,19.5,25,29,37.7s18.8,25.2,29.5,36.7a180.334,180.334,0,0,0,16.7,16c2.9,2.4,5.8,5,9.1,6.7,3.1,1.6,6.8,1.9,9.4-.7a9.889,9.889,0,0,0,2.6-8.2c-.5-3.6-2.9-6.5-5.5-8.8-5.2-4.7-11.3-8.3-15.8-13.8a21.864,21.864,0,0,1-2.6-4.1c-.8-1.8-3.4-.2-2.6,1.5,2.8,6,8.6,10.5,13.7,14.5,4.4,3.4,12,8.3,9.4,14.9-1.2,3.2-4.3,3.7-7.1,2.2a51.316,51.316,0,0,1-8.8-6.5,167.363,167.363,0,0,1-16.1-15.4c-10.2-11-19.3-23-28.3-35S110,6,100.7-5.9C91-18.4,81.6-31.2,74.3-45.2c-.9-1.7-1.7-3.4-2.5-5C71-52,68.4-50.5,69.2-48.7Z" transform="translate(31.3 153.8)"/><path d="M113.1-35.9a262.112,262.112,0,0,0,52.1,53.6,295.449,295.449,0,0,0,31.1,20.8c5.3,3.1,10.7,6,16.2,8.8,2.9,1.5,5.8,2.9,8.7,4.3,2.6,1.2,5.8,2.2,7.9,4.1.8.7,2,2.2.8,3.1-1,.8-2.7.4-3.8.2-3.4-.7-6.8-1.3-10.2-2-6.9-1.3-14-3.1-19.5-7.7-1.5-1.2-3.6.9-2.1,2.1,5.1,4.3,11.2,6.4,17.6,7.8,3.3.7,6.6,1.3,9.9,1.9,2.7.5,5.8,1.7,8.5.7a4.36,4.36,0,0,0,2.8-5.6,3.379,3.379,0,0,0-.6-1.2c-1.7-2.6-4.6-3.8-7.4-5-6-2.8-11.9-5.7-17.7-8.8a276.271,276.271,0,0,1-62.6-45,245.312,245.312,0,0,1-29.1-33.6C114.6-38.9,112-37.4,113.1-35.9Z" transform="translate(31.3 153.8)"/><path d="M187.4,89.1a73.613,73.613,0,0,0,11.5,12.8c2.4,2.1,5,4.1,7.6,6,2.8,2.1,5.7,4.5,9,5.9,2.8,1.2,6.1,1.3,8.1-1.4s1.1-6.1-.7-8.5c-2-2.6-4.9-4.4-7.3-6.7a100.491,100.491,0,0,1-6.9-7.6c-4.9-5.8-9.6-12-15.6-16.8-1.5-1.2-3.6.9-2.1,2.1,9.6,7.7,15.7,18.7,25,26.7,2.1,1.8,5.2,3.6,5.7,6.6a3.021,3.021,0,0,1-1.1,3.1c-1.2.7-2.7.3-3.9-.2a40.283,40.283,0,0,1-7.8-5.1c-2.4-1.8-4.8-3.5-7-5.5A80.286,80.286,0,0,1,190,87.7c-1.2-1.6-3.8-.1-2.6,1.4Z" transform="translate(31.3 153.8)"/><path d="M203.2,87.3a69.229,69.229,0,0,0,13.4,7.2c2.5,1.1,5.1,2.2,7.6,3.1a31.037,31.037,0,0,0,6.6,1.9c2.6.3,5.7-.4,6.5-3.2.9-3-1.8-5.7-4-7.3-6.4-4.7-13-9.1-19.5-13.6L191.7,60c-1.6-1.1-3.1,1.5-1.5,2.6l35.6,24.8,4.1,2.7a14.753,14.753,0,0,1,3.6,3c.7.8,1.5,2.2.5,3a4.656,4.656,0,0,1-3.1.4,29.634,29.634,0,0,1-5.8-1.7c-2.3-.8-4.5-1.7-6.8-2.7a78.225,78.225,0,0,1-13.7-7.3c-1.4-1.2-2.9,1.4-1.4,2.5Z" transform="translate(31.3 153.8)"/><path d="M198.9,68.7a106.537,106.537,0,0,0,19.2,10.1c3.3,1.3,6.6,2.5,10.1,3.5a63.819,63.819,0,0,0,10.7,2.4c3,.3,6.4-.9,7.1-4.2a3.762,3.762,0,0,0-.1-2.1,2.546,2.546,0,0,0-1.6-1.6c-1.7-.8-3.3-1.6-5-2.4-6.8-3.3-13.5-6.8-20-10.6-7.3-4.2-14.5-8.8-21.5-13.6-1.6-1.1-3.1,1.5-1.5,2.6a321.743,321.743,0,0,0,47.4,27l-.7-.9c.7,1.8-1.3,2.8-2.8,2.8a24.3,24.3,0,0,1-6-1,92.789,92.789,0,0,1-11.7-3.5,103.246,103.246,0,0,1-22-11.1c-1.7-1.1-3.2,1.5-1.6,2.6Z" transform="translate(31.3 153.8)"/><path d="M236.7,139.3A66.564,66.564,0,0,1,173.5,120c-1.3-1.4-3.4.7-2.1,2.1a69.994,69.994,0,0,0,66.1,20.1A1.5,1.5,0,0,0,236.7,139.3Z" transform="translate(31.3 153.8)"/><path d="M261.7,150.7a117.306,117.306,0,0,1-51.4.3,125.932,125.932,0,0,1-47.2-20.8,113.756,113.756,0,0,1-21.2-19.8c-1.2-1.5-3.3.7-2.1,2.1a121.4,121.4,0,0,0,41.8,32,128.607,128.607,0,0,0,51.3,12.1,119.019,119.019,0,0,0,29.7-3.1c1.8-.3,1-3.2-.9-2.8Z" transform="translate(31.3 153.8)"/><path d="M52.8,483.7c-2.8-15.5-2.8-31.3-2.2-46.9.5-15.3,1.4-30.7,1.8-46,.4-15.2.7-30.5,2.4-45.6a185.277,185.277,0,0,1,3.7-22.1,99.953,99.953,0,0,1,3-10.7c.8-2.5,1.9-6.2,4.8-6.9,2.7-.6,5.4,1.6,6.4,3.9,1.5,3.5.3,7.7-.7,11.2-1.9,6.1-4,12.4-4.1,18.9a20.24,20.24,0,0,0,.4,4.3c.3,1.9,3.2,1.1,2.9-.8a23.877,23.877,0,0,1,.5-9.6c.7-3.3,1.6-6.7,2.6-9.9,2-6.5,4.3-14.8-2.3-19.5a7.39,7.39,0,0,0-8.4-.5c-2.7,1.8-3.8,5-4.8,7.9a148.19,148.19,0,0,0-5.4,22.8c-2.5,15.7-3.2,31.6-3.6,47.5-.2,7.8-.3,15.6-.6,23.4-.3,8.1-.7,16.2-1.1,24.3-.7,16.5-1.1,33,1.1,49.4.3,1.9.6,3.9.9,5.8.2,1.9,3.1,1.1,2.7-.9Z" transform="translate(31.3 153.8)"/><path d="M81.2,448.2a256.352,256.352,0,0,1,13.6-79.6,288.782,288.782,0,0,1,15.5-37.2c3.1-6.2,6.3-12.2,9.7-18.2,1.4-2.4,2.9-4.7,3.1-7.5.2-2.5-1.2-4.9-3.8-5.2-3.4-.4-5.9,3-7.9,5.2-2.3,2.4-4.7,4.8-6.9,7.2-4.6,4.9-8.6,10.4-10.4,17a1.557,1.557,0,0,0,1.2,1.8,1.62,1.62,0,0,0,1.7-1c1.4-5.6,4.7-10.3,8.6-14.6,1.9-2.1,3.9-4.1,5.8-6.1.9-1,1.9-1.9,2.8-2.9a15.677,15.677,0,0,1,3.2-3.1c.8-.5,2.2-1,2.7.2a4.126,4.126,0,0,1-.2,2.9c-.8,2.7-2.7,5.2-4.1,7.6-3.2,5.7-6.3,11.5-9.2,17.5a280.283,280.283,0,0,0-24.1,72.4,255.383,255.383,0,0,0-4.1,43.6,1.538,1.538,0,0,0,1.5,1.5A1.321,1.321,0,0,0,81.2,448.2Z" transform="translate(31.3 153.8)"/><path d="M69.4,303.3a67.663,67.663,0,0,1,1.8-15.5,85.578,85.578,0,0,1,2.3-8.3c.9-3.1,2-6.1,3.2-9.1.8-1.7,2.4-4.9,4.8-4.1,3.3,1,2.4,5.6,1.7,8a99.177,99.177,0,0,0-2.8,18c-.6,6.9-.9,13.9-2.8,20.5a1.492,1.492,0,1,0,2.9.7c1.8-6.5,2.2-13.4,2.8-20.1.3-3.5.6-7,1.1-10.5a40.478,40.478,0,0,1,.9-4.8c.4-1.8,1-3.5,1.3-5.3.6-3.2.2-6.7-2.6-8.8a5.719,5.719,0,0,0-7.6,1c-2.2,2.4-3.2,5.7-4.2,8.7-1.1,3.2-2.2,6.4-3,9.7a80.423,80.423,0,0,0-2.7,19.5c0,2.3,3,2.3,2.9.4Z" transform="translate(31.3 153.8)"/><path d="M83.3,296.8a69.97,69.97,0,0,1,6-12.3,78.713,78.713,0,0,1,7.6-11.2,6.363,6.363,0,0,1,3.2-2.4c1.2-.2,1.7.6,1.8,1.6.3,2.6-1.3,5.5-2.1,7.9l-7.3,20.4-8.2,23c-.7,1.8,2.2,2.6,2.9.8l16.3-45.5c.9-2.5,2.1-5.4,1.2-8.1a4.589,4.589,0,0,0-5.8-2.9,3.552,3.552,0,0,0-.9.4c-2.3,1.2-3.9,3.5-5.4,5.5s-3,4.3-4.4,6.6c-3,4.9-6,10-7.8,15.5-.6,1.8,2.3,2.5,2.9.7Z" transform="translate(31.3 153.8)"/><path d="M90.5,314.5a100.913,100.913,0,0,1,11.7-22,104.724,104.724,0,0,1,7.8-9.8,16.849,16.849,0,0,1,4.1-3.9c1.1-.6,3.1-.8,3.5.8l.2-1.2a326.485,326.485,0,0,0-23.2,49.8c-.7,1.8,2.2,2.6,2.9.8a313.41,313.41,0,0,1,19.2-42.6c.9-1.6,1.8-3.3,2.7-4.9a5.282,5.282,0,0,0,1.1-2.4,3.333,3.333,0,0,0-.9-2.1c-1.8-2.2-5.1-2.1-7.4-.7-2.8,1.8-5.1,4.9-7.2,7.4a106.453,106.453,0,0,0-6.4,8.6,113.013,113.013,0,0,0-11,21.3c-.7,1.9,2.2,2.7,2.9.9Z" transform="translate(31.3 153.8)"/><path d="M76.7,231.2a70.683,70.683,0,0,0-38.4,39.2,66.284,66.284,0,0,0-4,15.3,1.512,1.512,0,0,0,1,1.8,1.431,1.431,0,0,0,1.8-1,67.526,67.526,0,0,1,27.1-44.9,69.024,69.024,0,0,1,13.2-7.5C79.3,233.4,78.5,230.5,76.7,231.2Z" transform="translate(31.3 153.8)"/><path d="M90.5,207.4a124.27,124.27,0,0,0-43.3,30.1A129.347,129.347,0,0,0,20,282.8a118.356,118.356,0,0,0-6.1,29.4c-.1,1.9,2.9,1.9,3,0A118.852,118.852,0,0,1,32,263.3a125.883,125.883,0,0,1,33.9-38.7,118.555,118.555,0,0,1,25.2-14.3c2-.8,1.2-3.7-.6-2.9Z" transform="translate(31.3 153.8)"/></g></svg>