<?xml version="1.0" encoding="utf-8"?>
<!-- Generator: Adobe Illustrator 25.0.0, SVG Export Plug-In . SVG Version: 6.00 Build 0)  -->
<svg version="1.1" id="Layer_1" xmlns="http://www.w3.org/2000/svg" xmlns:xlink="http://www.w3.org/1999/xlink" x="0px" y="0px"
	 viewBox="0 0 451.7 400" style="enable-background:new 0 0 451.7 400;" xml:space="preserve">
<style type="text/css">
	.st0{clip-path:url(#SVGID_2_);}
	.st1{fill:#F6C446;}
	.st2{fill:#FFC9C6;}
</style>
<g>
	<defs>
		<rect id="SVGID_1_" width="451.7" height="400"/>
	</defs>
	<clipPath id="SVGID_2_">
		<use xlink:href="#SVGID_1_"  style="overflow:visible;"/>
	</clipPath>
	<g class="st0">
		<circle class="st1" cx="401.3" cy="322.9" r="101.7"/>
		<polygon class="st2" points="299.9,-46.5 42.9,41.2 107.5,145.9 541.1,135.5 		"/>
		<path d="M458.3,353c-7-14.8-16.6-28.3-26.5-41.2c-9.7-12.6-19.5-25-29-37.7S384,249,373.4,237.4c-5.2-5.7-10.8-11-16.7-16
			c-2.9-2.4-5.8-5-9.1-6.7c-3.1-1.6-6.8-1.9-9.4,0.7c-2.1,2.2-3,5.2-2.6,8.2c0.5,3.6,2.9,6.5,5.5,8.9c5.2,4.7,11.3,8.3,15.8,13.8
			c1,1.3,1.9,2.6,2.6,4.1c0.8,1.8,3.4,0.2,2.6-1.5c-2.8-6-8.6-10.5-13.7-14.4c-4.4-3.4-12-8.3-9.4-14.9c1.2-3.2,4.3-3.7,7.1-2.2
			c3.2,1.8,6.1,4,8.8,6.5c5.7,4.8,11.1,9.9,16.1,15.4c10.2,11,19.3,23,28.3,35s18.3,24,27.6,36c9.7,12.5,19.1,25.2,26.4,39.3
			c0.9,1.7,1.7,3.3,2.5,5C456.5,356.2,459,354.7,458.3,353L458.3,353z"/>
		<path d="M414.4,340.1c-14.7-20.3-32.3-38.3-52.1-53.6c-9.9-7.6-20.3-14.5-31.1-20.8c-5.3-3.1-10.7-6-16.2-8.8
			c-2.9-1.5-5.8-2.9-8.7-4.3c-2.6-1.2-5.8-2.2-7.9-4.1c-0.8-0.7-2-2.2-0.8-3.1c1-0.8,2.8-0.4,3.8-0.2c3.4,0.7,6.8,1.3,10.2,2
			c6.9,1.3,14,3.1,19.5,7.7c1.5,1.2,3.6-0.9,2.1-2.1c-5.1-4.3-11.2-6.4-17.7-7.8c-3.3-0.7-6.6-1.3-9.9-1.9c-2.7-0.5-5.8-1.7-8.5-0.7
			c-2.3,0.7-3.6,3.2-2.9,5.5c0.1,0.4,0.3,0.8,0.6,1.2c1.7,2.6,4.7,3.8,7.4,5c6,2.8,11.9,5.7,17.7,8.8c22.9,12.1,44.1,27.3,62.8,45.2
			c10.7,10.3,20.4,21.5,29.1,33.6C412.9,343.2,415.5,341.7,414.4,340.1z"/>
		<path d="M340.1,215.1c-3.3-4.7-7.2-9-11.5-12.8c-2.4-2.1-5-4.1-7.6-6c-2.8-2.1-5.7-4.5-9-5.9c-2.8-1.1-6.1-1.3-8.1,1.4
			s-1.1,6.1,0.7,8.5c2,2.6,5,4.4,7.3,6.7s4.7,5,6.9,7.6c4.9,5.8,9.7,12,15.6,16.8c1.5,1.2,3.6-0.9,2.1-2.1
			c-9.6-7.7-15.7-18.7-25-26.7c-2.1-1.8-5.2-3.6-5.7-6.6c-0.3-1.2,0.2-2.4,1.1-3.1c1.2-0.7,2.7-0.3,3.9,0.2c2.8,1.2,5.3,3.3,7.8,5.1
			c7.2,5.1,13.6,11.3,18.9,18.4C338.7,218.2,341.3,216.7,340.1,215.1L340.1,215.1z"/>
		<path d="M324.3,217c-4.2-2.9-8.7-5.3-13.4-7.2c-2.5-1.1-5.1-2.2-7.7-3.1c-2.1-0.9-4.3-1.5-6.6-1.9c-2.6-0.3-5.7,0.4-6.5,3.2
			c-0.8,3,1.8,5.7,4,7.3c6.4,4.7,13,9.1,19.5,13.6l22.1,15.4c1.6,1.1,3.1-1.5,1.5-2.6l-35.5-24.8l-4.1-2.9c-1.4-0.8-2.6-1.8-3.7-3
			c-0.7-0.8-1.5-2.2-0.5-3c1-0.5,2.1-0.6,3.1-0.4c2,0.4,3.9,0.9,5.8,1.7c2.3,0.8,4.5,1.7,6.8,2.7c4.8,2,9.4,4.4,13.7,7.3
			C324.3,220.7,325.8,218.1,324.3,217L324.3,217z"/>
		<path d="M328.6,235.6c-6-4-12.5-7.4-19.2-10.1c-3.3-1.3-6.6-2.5-10-3.5c-3.5-1.2-7.1-2-10.7-2.4c-3-0.3-6.3,0.9-7.1,4.2
			c-0.2,0.7-0.1,1.4,0.1,2.1c0.3,0.9,0.8,1.2,1.7,1.6c1.7,0.8,3.4,1.6,5,2.4c6.8,3.3,13.5,6.8,20,10.6c7.3,4.3,14.5,8.8,21.5,13.6
			c1.6,1.1,3.1-1.5,1.5-2.6c-15-10.3-30.9-19.4-47.4-27l0.7,0.9c-0.7-1.8,1.3-2.8,2.8-2.8c2,0.1,4,0.4,6,1c4,0.9,7.9,2.1,11.7,3.5
			c7.7,2.8,15.1,6.6,21.9,11.1C328.7,239.2,330.2,236.6,328.6,235.6z"/>
		<path d="M290.8,165c23-5.2,47,2.1,63.2,19.3c1.3,1.4,3.4-0.7,2.1-2.1c-17-17.9-42.1-25.5-66.1-20.1
			C288.2,162.5,288.9,165.4,290.8,165z"/>
		<path d="M265.8,153.6c16.9-3.9,34.5-4,51.4-0.3c17,3.6,33.1,10.7,47.2,20.8c7.9,5.7,15,12.3,21.2,19.8c1.2,1.5,3.3-0.6,2.1-2.1
			c-11.4-13.6-25.7-24.5-41.8-32c-16.1-7.6-33.5-11.7-51.3-12.1c-10-0.2-20,0.8-29.7,3.1C263.1,151.1,263.9,154,265.8,153.6
			L265.8,153.6z"/>
		<path d="M225.1,460.7c-14.7-5.8-28.3-14.2-41.5-22.9c-12.7-8.5-25.2-17.2-38-25.5c-12.5-8.1-25.1-16.2-36.9-25.4
			c-5.8-4.4-11.3-9.2-16.5-14.3c-2.6-2.5-5.1-5.1-7.4-7.9c-2-2.3-5.7-5.8-4.3-9.1c1-2.5,4.3-3.5,6.8-3.1c3.4,0.6,6.2,3.3,8.4,5.8
			c4.5,5,8.8,10.3,14.4,14c1.3,0.8,2.6,1.5,4,2.1c1.8,0.7,2.6-2.2,0.8-2.9c-3.1-1.4-5.9-3.4-8.3-5.8c-2.6-2.4-5-5-7.2-7.7
			c-4.3-4.9-10.2-10.8-17.2-7.8c-2.9,1.1-4.9,3.9-4.9,7c0.1,3.8,3,6.9,5.4,9.6c5.1,5.7,10.5,11.1,16.3,16
			c11.8,10.1,24.8,18.8,37.8,27.3c6.3,4.1,12.7,8.2,19.1,12.4c6.8,4.5,13.6,9.2,20.3,13.8c13.6,9.2,27.5,18.3,42.6,24.9
			c1.8,0.8,3.7,1.6,5.6,2.3S226.8,461.4,225.1,460.7L225.1,460.7z"/>
		<path d="M210.5,417.7c-22.3-14-42.3-31.4-59.2-51.5c-8.4-9.9-16.1-20.4-23.1-31.4c-3.5-5.5-6.9-11.1-10.1-16.9
			c-1.6-2.8-2.9-6-4.9-8.5c-1.7-2.1-4.4-4.1-7.1-2.6c-3.1,1.7-2.5,5.7-1.7,8.5c1,3.4,1.8,6.9,2.7,10.3c1.9,7,4.4,14,9.5,19.3
			c1.3,1.4,3.4-0.7,2.1-2.1c-4.3-4.5-6.6-10.2-8.2-16.1c-0.9-3-1.6-6.1-2.4-9.2c-0.4-1.4-0.8-2.7-1.1-4c-0.3-1-0.6-2.6,0-3.6
			c1.7-2.6,4.8,2.8,5.4,3.9l4.5,8.1c3.1,5.5,6.4,10.8,9.8,16.1c13.5,20.9,29.7,40,48.2,56.7c10.6,9.5,22,18,34.1,25.6
			c0.7,0.4,1.6,0.2,2.1-0.5C211.4,419,211.2,418.1,210.5,417.7L210.5,417.7z"/>
		<path d="M82.4,350.1c-3.5-2.9-6.7-6-9.7-9.4c-2.6-2.9-4.8-6-7.2-9c-1.7-2.2-3.8-4.3-4.9-6.9c-0.6-1-0.7-2.2-0.3-3.3
			c0.6-1.1,1.8-1.6,3-1.4c2.8,0.2,4.8,2.9,6.6,4.8l7,7.7l15.7,17.3c1.3,1.4,3.4-0.7,2.1-2.1L79,330.5l-7.7-8.5
			c-2-2.2-4.2-4.5-7.3-4.9c-2.9-0.4-5.9,0.9-6.8,3.8s0.7,5.8,2.4,8c2.9,4,6,7.9,9.2,11.7c3.5,4.1,7.3,7.9,11.4,11.4
			C81.6,353.5,83.8,351.4,82.4,350.1L82.4,350.1z"/>
		<path d="M78.2,329.5c-3.2-3.9-5.9-8.2-7.8-12.9c-1-2-1.6-4.2-1.9-6.4c-0.1-0.8,0.1-1.5,0.6-2.1c0.8-0.6,2,0,2.7,0.5
			c2,1.4,3.5,3.8,5,5.7l5.6,7l10.7,13.4l12.3,15.4c1.2,1.5,3.3-0.6,2.1-2.1l-24.6-30.7l-6.2-7.8c-1.6-2-3.5-4.1-6.1-4.5
			c-2.3-0.4-4.5,1.1-5,3.3c-0.6,2.2,0.2,4.6,0.9,6.7c2.2,6,5.4,11.7,9.5,16.6C77.3,333.1,79.4,331,78.2,329.5z"/>
		<path d="M100.9,340.1c-4.9-6.5-9.1-13.5-12.4-20.9c-1.6-3.7-3.1-7.5-4.3-11.3c-0.8-2-1.3-4-1.6-6.1c-0.1-1.4,0.6-3.9,2.5-3.2
			l-0.9-0.7c8.8,16.1,18.9,31.5,30.3,45.9c1.2,1.5,3.3-0.6,2.1-2.1c-9.3-11.8-17.8-24.2-25.3-37.2c-0.9-1.6-1.8-3.2-2.8-4.8
			s-1.4-3.8-3.3-4.1c-3.2-0.5-5.5,2.5-5.7,5.4c0,1.7,0.2,3.3,0.8,4.9c0.5,1.8,1.1,3.6,1.7,5.5c1.1,3.3,2.4,6.5,3.8,9.7
			c3.3,7.3,7.4,14.3,12.3,20.7C99.5,343.2,102.1,341.7,100.9,340.1L100.9,340.1z"/>
		<path d="M49.9,378.7c-14-14.6-22.7-33.5-24.6-53.6c-0.5-5.6-0.5-11.2,0-16.8c0.2-1.7-2.5-2-2.9-0.4c-2.4,9.7-0.8,20.1,1.8,29.6
			c2.9,10.8,7.5,21,13.4,30.5c2.9,4.7,6.3,9,10.2,12.8C49.2,382.2,51.3,380,49.9,378.7c-7-6.8-12.2-15.5-16.3-24.3
			c-4.5-9.6-7.9-20-9-30.5c-0.6-5.1-0.4-10.2,0.7-15.2l-3-0.4c-1.9,20.7,3.2,41.4,14.5,58.8c3.2,4.9,6.9,9.5,10.9,13.8
			c0.7,0.6,1.6,0.5,2.2-0.2C50.3,380.1,50.3,379.3,49.9,378.7z"/>
		<path d="M18.4,283.5C4.1,295-1.7,314.6,0.5,332.4c2.5,20.6,14,38.8,27.7,53.8c8.2,9,17.3,17,26.3,25.1c1.4,1.3,3.6-0.8,2.1-2.1
			c-15.4-13.7-31.1-27.7-41.8-45.5C5.1,347.6-0.1,328.3,5,309.8c2.5-9.5,7.9-17.9,15.4-24.2C22,284.4,19.9,282.3,18.4,283.5
			L18.4,283.5z"/>
		<path d="M34.7-97.2C48.1-89.2,60-79,71.4-68.5c11.2,10.3,22,20.9,33.3,31.1S127.3-17,137.6-5.9c5.1,5.5,9.9,11.2,14.4,17.2
			c2.2,3,4.3,6.1,6.3,9.3c1.6,2.6,4.6,6.8,2.2,9.7c-1.7,2-4.9,2.3-7.2,1.4c-3.2-1.3-5.4-4.4-7.2-7.3c-3.5-5.5-6.9-11.3-11.7-15.7
			c-1.1-1-2.3-1.9-3.6-2.6c-0.7-0.4-1.6-0.1-2,0.6c-0.4,0.7-0.1,1.6,0.5,2c2.8,1.8,5.2,4.1,7.2,6.8c2.1,2.7,4,5.6,5.8,8.5
			c3.4,5.5,7.9,12.3,15.4,11.1c3-0.4,5.5-2.4,6.5-5.3c1.1-3.9-1.3-7.7-3.3-10.9c-4.1-6.5-8.6-12.7-13.6-18.6
			c-10.2-12.1-21.8-22.9-33.5-33.6c-5.7-5.2-11.5-10.4-17.2-15.7c-5.9-5.5-11.7-11.1-17.5-16.6c-11.8-11.1-23.9-22.1-37.5-31
			c-1.7-1.1-3.4-2.1-5.1-3.2c-0.7-0.4-1.6-0.1-2,0.6c-0.5,0.5-0.5,1.3-0.1,1.8C34.5-97.3,34.6-97.3,34.7-97.2L34.7-97.2z"/>
		<path d="M42.2-52.5C61.8-35.1,78.8-14.8,92.4,7.7c6.7,11.2,12.6,22.7,17.8,34.7c2.7,6.1,5.1,12.3,7.4,18.6
			c1.1,2.9,1.8,6.1,3.3,8.9c1.2,2.2,3.5,4.7,6.3,4c3.2-0.8,3.8-4.3,3.6-7.1c-0.3-3.7-0.7-7.3-1.1-10.9c-0.7-7.5-2-15-6.3-21.3
			c-1.1-1.6-3.7-0.1-2.6,1.5c3.7,5.4,5.1,11.8,5.7,18.2c0.3,3.2,0.6,6.3,0.9,9.5c0.1,1.3,0.4,2.7,0.4,4.1c0,1,0,2.4-0.9,3
			c-2.2,1.3-3.9-3.5-4.4-4.8c-1-3-2.1-5.9-3.2-8.9c-2.2-6-4.6-11.9-7.2-17.7C102.2,16.7,89.2-4.6,73.7-24
			c-8.9-11-18.8-21.3-29.4-30.6C42.9-55.9,40.7-53.8,42.2-52.5z"/>
		<path d="M158.1,35.1c2.9,3.4,5.6,7,8,10.8c2.1,3.3,3.9,6.9,5.8,10.3c1.5,2.2,2.6,4.7,3.5,7.2c0.6,2.3-0.4,4.7-3.2,4.2
			s-4.5-3.6-5.9-5.8l-5.6-8.8l-12.8-19.6c-1-1.6-3.7-0.1-2.6,1.5l12.8,19.6c2.1,3.3,4.2,6.5,6.3,9.8c1.7,2.5,3.6,5.2,6.7,6.1
			c2.7,0.9,5.7-0.3,7-2.9c1.2-2.6,0.2-5.6-1-8c-1.3-2.7-2.9-5.2-4.3-7.8c-1-1.8-2-3.7-3-5.4c-2.9-4.6-6.1-9-9.6-13.2
			C159,31.5,156.9,33.6,158.1,35.1L158.1,35.1z"/>
		<path d="M158.7,55.8c2.6,4.4,4.6,9.2,5.8,14.2c0.5,2.1,1.2,4.5,0.8,6.7c-0.1,0.7-0.4,1.6-1.1,1.8c-0.9,0.3-1.8-0.4-2.4-1
			c-1.7-1.7-2.8-4.2-3.9-6.3l-4.4-7.8l-8.4-15l-9.7-17.1c-0.4-0.7-1.4-0.9-2.1-0.5c-0.7,0.4-0.9,1.4-0.5,2.1l0,0l19.3,34.3l4.9,8.7
			c1.2,2.2,2.7,4.5,5,5.5c2.1,0.9,4.5,0,5.6-2c1.1-2,0.8-4.4,0.5-6.6c-1.1-6.5-3.4-12.7-6.8-18.4c-0.5-0.7-1.4-0.9-2.1-0.5
			C158.5,54.1,158.3,55,158.7,55.8L158.7,55.8z"/>
		<path d="M138.1,42c5.8,10.9,9.7,22.8,11.3,35.1c0.4,1.9,0.5,3.9,0.4,5.9c-0.2,1.2-1.3,3.2-2.8,2.4l0.7,0.9
			c-6.1-17.3-13.6-34.1-22.5-50.2c-0.9-1.7-3.5-0.2-2.6,1.5c7.4,13.2,13.8,26.9,19.2,41.1c0.7,1.8,1.3,3.5,2,5.3
			c0.5,1.5,0.8,3.7,2.4,4.3c2.8,1,5.6-1.1,6.4-3.7c0.4-1.6,0.5-3.3,0.2-5c-0.2-1.8-0.4-3.6-0.7-5.3c-0.6-3.6-1.3-7.1-2.2-10.7
			c-2.1-8-5.2-15.8-9.1-23.1C139.9,38.8,137.3,40.3,138.1,42L138.1,42z"/>
		<path d="M194.5,11.8c11.4,16.6,17,36.6,15.8,56.7c-0.3,5.6-1.2,11.2-2.7,16.7c-0.4,1.6,2,2.8,2.7,1.2c4-9.2,4.1-19.8,3.1-29.7
			c-1.2-11.1-4-21.9-8.4-32.2c-2.1-5-4.7-9.8-7.9-14.2C196,8.8,193.4,10.3,194.5,11.8c5.9,7.9,9.7,17.4,12.3,26.8
			c2.9,10.2,4.6,20.9,4,31.5c-0.2,5-1.2,10-3.1,14.7l2.7,1.2c5.2-20.1,3.5-41.3-4.7-60.4c-2.3-5.4-5.2-10.5-8.6-15.3
			C196,8.7,193.4,10.2,194.5,11.8z"/>
		<path d="M210.3,111c15.6-8.9,24.4-26.5,25.6-44.1c1.4-21.3-7.4-41.9-18.9-59.3c-6.6-10.1-14.3-19.5-21.9-28.8
			c-1.2-1.5-3.3,0.6-2.1,2.1c12.9,15.9,26.2,32.2,33.8,51.5c7,17.6,9.1,37.8,0.7,55.3c-4,8.7-10.5,15.9-18.7,20.7
			c-0.7,0.4-1,1.3-0.6,2c0,0,0,0.1,0.1,0.1C208.6,111.2,209.5,111.4,210.3,111C210.2,111,210.2,111,210.3,111L210.3,111z"/>
	</g>
</g>
</svg>
