<svg xmlns="http://www.w3.org/2000/svg" xmlns:xlink="http://www.w3.org/1999/xlink" viewBox="0 0 541.053 563.591"><defs><clipPath id="a" transform="translate(0 99.979)"><rect width="451.653" height="400" style="fill:none"/></clipPath></defs><g style="clip-path:url(#a)"><circle cx="401.252" cy="422.879" r="101.7" style="fill:#f6c446"/><polygon points="299.852 53.479 42.852 141.179 107.453 245.879 541.053 235.479 299.852 53.479" style="fill:#ffc9c6"/><path d="M458.252,353c-7-14.8-16.6-28.3-26.5-41.2-9.7-12.6-19.5-25-29-37.7s-18.8-25.1-29.4-36.7a180.322,180.322,0,0,0-16.7-16c-2.9-2.4-5.8-5-9.1-6.7-3.1-1.6-6.8-1.9-9.4.7a9.889,9.889,0,0,0-2.6,8.2c.5,3.6,2.9,6.5,5.5,8.9,5.2,4.7,11.3,8.3,15.8,13.8a21.864,21.864,0,0,1,2.6,4.1c.8,1.8,3.4.2,2.6-1.5-2.8-6-8.6-10.5-13.7-14.4-4.4-3.4-12-8.3-9.4-14.9,1.2-3.2,4.3-3.7,7.1-2.2a51.355,51.355,0,0,1,8.8,6.5,179.9,179.9,0,0,1,16.1,15.4c10.2,11,19.3,23,28.3,35s18.3,24,27.6,36c9.7,12.5,19.1,25.2,26.4,39.3.9,1.7,1.7,3.3,2.5,5,.7,1.6,3.2.1,2.5-1.6Z" transform="translate(0 99.979)"/><path d="M414.352,340.1a262.086,262.086,0,0,0-52.1-53.6,295.539,295.539,0,0,0-31.1-20.8c-5.3-3.1-10.7-6-16.2-8.8-2.9-1.5-5.8-2.9-8.7-4.3-2.6-1.2-5.8-2.2-7.9-4.1-.8-.7-2-2.2-.8-3.1,1-.8,2.8-.4,3.8-.2,3.4.7,6.8,1.3,10.2,2,6.9,1.3,14,3.1,19.5,7.7,1.5,1.2,3.6-.9,2.1-2.1-5.1-4.3-11.2-6.4-17.7-7.8-3.3-.7-6.6-1.3-9.9-1.9-2.7-.5-5.8-1.7-8.5-.7a4.427,4.427,0,0,0-2.9,5.5,3.376,3.376,0,0,0,.6,1.2c1.7,2.6,4.7,3.8,7.4,5,6,2.8,11.9,5.7,17.7,8.8a280.052,280.052,0,0,1,62.8,45.2,245.3,245.3,0,0,1,29.1,33.6c1.1,1.5,3.7,0,2.6-1.6Z" transform="translate(0 99.979)"/><path d="M340.053,215.1a77.892,77.892,0,0,0-11.5-12.8c-2.4-2.1-5-4.1-7.6-6-2.8-2.1-5.7-4.5-9-5.9-2.8-1.1-6.1-1.3-8.1,1.4s-1.1,6.1.7,8.5c2,2.6,5,4.4,7.3,6.7s4.7,5,6.9,7.6c4.9,5.8,9.7,12,15.6,16.8,1.5,1.2,3.6-.9,2.1-2.1-9.6-7.7-15.7-18.7-25-26.7-2.1-1.8-5.2-3.6-5.7-6.6a3.021,3.021,0,0,1,1.1-3.1c1.2-.7,2.7-.3,3.9.2,2.8,1.2,5.3,3.3,7.8,5.1a82.921,82.921,0,0,1,18.9,18.4c1.2,1.6,3.8.1,2.6-1.5Z" transform="translate(0 99.979)"/><path d="M324.252,217a69.171,69.171,0,0,0-13.4-7.2c-2.5-1.1-5.1-2.2-7.7-3.1a31.054,31.054,0,0,0-6.6-1.9c-2.6-.3-5.7.4-6.5,3.2-.8,3,1.8,5.7,4,7.3,6.4,4.7,13,9.1,19.5,13.6l22.1,15.4c1.6,1.1,3.1-1.5,1.5-2.6l-35.5-24.8-4.1-2.9a17.374,17.374,0,0,1-3.7-3c-.7-.8-1.5-2.2-.5-3a4.656,4.656,0,0,1,3.1-.4,29.634,29.634,0,0,1,5.8,1.7c2.3.8,4.5,1.7,6.8,2.7a78.225,78.225,0,0,1,13.7,7.3c1.5,1.4,3-1.2,1.5-2.3Z" transform="translate(0 99.979)"/><path d="M328.553,235.6a106.537,106.537,0,0,0-19.2-10.1c-3.3-1.3-6.6-2.5-10-3.5a55.286,55.286,0,0,0-10.7-2.4c-3-.3-6.3.9-7.1,4.2a3.762,3.762,0,0,0,.1,2.1c.3.9.8,1.2,1.7,1.6,1.7.8,3.4,1.6,5,2.4,6.8,3.3,13.5,6.8,20,10.6,7.3,4.3,14.5,8.8,21.5,13.6,1.6,1.1,3.1-1.5,1.5-2.6a321.743,321.743,0,0,0-47.4-27l.7.9c-.7-1.8,1.3-2.8,2.8-2.8a24.3,24.3,0,0,1,6,1,92.789,92.789,0,0,1,11.7,3.5,104.89,104.89,0,0,1,21.9,11.1c1.6,1,3.1-1.6,1.5-2.6Z" transform="translate(0 99.979)"/><path d="M290.752,165a66.564,66.564,0,0,1,63.2,19.3c1.3,1.4,3.4-.7,2.1-2.1a69.994,69.994,0,0,0-66.1-20.1C288.153,162.5,288.852,165.4,290.752,165Z" transform="translate(0 99.979)"/><path d="M265.752,153.6a117.311,117.311,0,0,1,51.4-.3,125.928,125.928,0,0,1,47.2,20.8,113.756,113.756,0,0,1,21.2,19.8c1.2,1.5,3.3-.6,2.1-2.1a121.4,121.4,0,0,0-41.8-32,126.946,126.946,0,0,0-51.3-12.1,119.019,119.019,0,0,0-29.7,3.1c-1.8.3-1,3.2.9,2.8Z" transform="translate(0 99.979)"/><path d="M225.053,460.7c-14.7-5.8-28.3-14.2-41.5-22.9-12.7-8.5-25.2-17.2-38-25.5-12.5-8.1-25.1-16.2-36.9-25.4a187.626,187.626,0,0,1-16.5-14.3,92.356,92.356,0,0,1-7.4-7.9c-2-2.3-5.7-5.8-4.3-9.1,1-2.5,4.3-3.5,6.8-3.1,3.4.6,6.2,3.3,8.4,5.8,4.5,5,8.8,10.3,14.4,14a30.473,30.473,0,0,0,4,2.1c1.8.7,2.6-2.2.8-2.9a26.481,26.481,0,0,1-8.3-5.8,87.441,87.441,0,0,1-7.2-7.7c-4.3-4.9-10.2-10.8-17.2-7.8a7.469,7.469,0,0,0-4.9,7c.1,3.8,3,6.9,5.4,9.6a164.258,164.258,0,0,0,16.3,16c11.8,10.1,24.8,18.8,37.8,27.3,6.3,4.1,12.7,8.2,19.1,12.4,6.8,4.5,13.6,9.2,20.3,13.8,13.6,9.2,27.5,18.3,42.6,24.9,1.8.8,3.7,1.6,5.6,2.3s2.4-2.1.7-2.8Z" transform="translate(0 99.979)"/><path d="M210.453,417.7a253.452,253.452,0,0,1-59.2-51.5,284.968,284.968,0,0,1-23.1-31.4c-3.5-5.5-6.9-11.1-10.1-16.9-1.6-2.8-2.9-6-4.9-8.5-1.7-2.1-4.4-4.1-7.1-2.6-3.1,1.7-2.5,5.7-1.7,8.5,1,3.4,1.8,6.9,2.7,10.3,1.9,7,4.4,14,9.5,19.3,1.3,1.4,3.4-.7,2.1-2.1-4.3-4.5-6.6-10.2-8.2-16.1-.9-3-1.6-6.1-2.4-9.2-.4-1.4-.8-2.7-1.1-4-.3-1-.6-2.6,0-3.6,1.7-2.6,4.8,2.8,5.4,3.9l4.5,8.1c3.1,5.5,6.4,10.8,9.8,16.1a283.934,283.934,0,0,0,48.2,56.7,257.247,257.247,0,0,0,34.1,25.6,1.5,1.5,0,0,0,1.5-2.6Z" transform="translate(0 99.979)"/><path d="M82.352,350.1a95.518,95.518,0,0,1-9.7-9.4c-2.6-2.9-4.8-6-7.2-9-1.7-2.2-3.8-4.3-4.9-6.9a3.834,3.834,0,0,1-.3-3.3,2.821,2.821,0,0,1,3-1.4c2.8.2,4.8,2.9,6.6,4.8l7,7.7,15.7,17.3c1.3,1.4,3.4-.7,2.1-2.1l-15.7-17.3-7.7-8.5c-2-2.2-4.2-4.5-7.3-4.9-2.9-.4-5.9.9-6.8,3.8s.7,5.8,2.4,8c2.9,4,6,7.9,9.2,11.7a102.265,102.265,0,0,0,11.4,11.4c1.4,1.5,3.6-.6,2.2-1.9Z" transform="translate(0 99.979)"/><path d="M78.153,329.5a49.917,49.917,0,0,1-7.8-12.9,20.545,20.545,0,0,1-1.9-6.4,2.635,2.635,0,0,1,.6-2.1c.8-.6,2,0,2.7.5,2,1.4,3.5,3.8,5,5.7l5.6,7,10.7,13.4,12.3,15.4c1.2,1.5,3.3-.6,2.1-2.1l-24.6-30.7-6.2-7.8c-1.6-2-3.5-4.1-6.1-4.5a4.377,4.377,0,0,0-5,3.3c-.6,2.2.2,4.6.9,6.7a54.733,54.733,0,0,0,9.5,16.6c1.3,1.5,3.4-.6,2.2-2.1Z" transform="translate(0 99.979)"/><path d="M100.852,340.1a107.607,107.607,0,0,1-12.4-20.9,119.092,119.092,0,0,1-4.3-11.3,26.139,26.139,0,0,1-1.6-6.1c-.1-1.4.6-3.9,2.5-3.2l-.9-.7a325.169,325.169,0,0,0,30.3,45.9c1.2,1.5,3.3-.6,2.1-2.1a312.273,312.273,0,0,1-25.3-37.2c-.9-1.6-1.8-3.2-2.8-4.8s-1.4-3.8-3.3-4.1c-3.2-.5-5.5,2.5-5.7,5.4a13.984,13.984,0,0,0,.8,4.9c.5,1.8,1.1,3.6,1.7,5.5a102.755,102.755,0,0,0,3.8,9.7,105.649,105.649,0,0,0,12.3,20.7c1.4,1.4,4-.1,2.8-1.7Z" transform="translate(0 99.979)"/><path d="M49.852,378.7a89.726,89.726,0,0,1-24.6-53.6,94.268,94.268,0,0,1,0-16.8c.2-1.7-2.5-2-2.9-.4-2.4,9.7-.8,20.1,1.8,29.6a113.76,113.76,0,0,0,13.4,30.5,66.775,66.775,0,0,0,10.2,12.8c1.4,1.4,3.5-.8,2.1-2.1-7-6.8-12.2-15.5-16.3-24.3-4.5-9.6-7.9-20-9-30.5a45.643,45.643,0,0,1,.7-15.2l-3-.4a92.559,92.559,0,0,0,14.5,58.8,103.3,103.3,0,0,0,10.9,13.8A1.561,1.561,0,0,0,49.852,378.7Z" transform="translate(0 99.979)"/><path d="M18.352,283.5c-14.3,11.5-20.1,31.1-17.9,48.9,2.5,20.6,14,38.8,27.7,53.8,8.2,9,17.3,17,26.3,25.1,1.4,1.3,3.6-.8,2.1-2.1-15.4-13.7-31.1-27.7-41.8-45.5-9.7-16.1-14.9-35.4-9.8-53.9a47.315,47.315,0,0,1,15.4-24.2c1.6-1.2-.5-3.3-2-2.1Z" transform="translate(0 99.979)"/><path d="M34.653-97.2c13.4,8,25.3,18.2,36.7,28.7,11.2,10.3,22,20.9,33.3,31.1s22.6,20.4,32.9,31.5a198.607,198.607,0,0,1,14.4,17.2q3.3,4.5,6.3,9.3c1.6,2.6,4.6,6.8,2.2,9.7-1.7,2-4.9,2.3-7.2,1.4-3.2-1.3-5.4-4.4-7.2-7.3-3.5-5.5-6.9-11.3-11.7-15.7a18.311,18.311,0,0,0-3.6-2.6,1.489,1.489,0,0,0-2,.6,1.554,1.554,0,0,0,.5,2,27.388,27.388,0,0,1,7.2,6.8,97.969,97.969,0,0,1,5.8,8.5c3.4,5.5,7.9,12.3,15.4,11.1a7.924,7.924,0,0,0,6.5-5.3c1.1-3.9-1.3-7.7-3.3-10.9A163.968,163.968,0,0,0,147.253.3c-10.2-12.1-21.8-22.9-33.5-33.6-5.7-5.2-11.5-10.4-17.2-15.7-5.9-5.5-11.7-11.1-17.5-16.6-11.8-11.1-23.9-22.1-37.5-31-1.7-1.1-3.4-2.1-5.1-3.2a1.489,1.489,0,0,0-2,.6,1.263,1.263,0,0,0,.2,2Z" transform="translate(0 99.979)"/><path d="M42.153-52.5a259.089,259.089,0,0,1,50.2,60.2,291.326,291.326,0,0,1,17.8,34.7c2.7,6.1,5.1,12.3,7.4,18.6,1.1,2.9,1.8,6.1,3.3,8.9,1.2,2.2,3.5,4.7,6.3,4,3.2-.8,3.8-4.3,3.6-7.1-.3-3.7-.7-7.3-1.1-10.9-.7-7.5-2-15-6.3-21.3-1.1-1.6-3.7-.1-2.6,1.5,3.7,5.4,5.1,11.8,5.7,18.2.3,3.2.6,6.3.9,9.5.1,1.3.4,2.7.4,4.1,0,1,0,2.4-.9,3-2.2,1.3-3.9-3.5-4.4-4.8-1-3-2.1-5.9-3.2-8.9q-3.3-9-7.2-17.7A277.82,277.82,0,0,0,73.653-24a250.167,250.167,0,0,0-29.4-30.6c-1.4-1.3-3.6.8-2.1,2.1Z" transform="translate(0 99.979)"/><path d="M158.053,35.1a94.222,94.222,0,0,1,8,10.8c2.1,3.3,3.9,6.9,5.8,10.3a31.974,31.974,0,0,1,3.5,7.2c.6,2.3-.4,4.7-3.2,4.2s-4.5-3.6-5.9-5.8l-5.6-8.8-12.8-19.6c-1-1.6-3.7-.1-2.6,1.5l12.8,19.6c2.1,3.3,4.2,6.5,6.3,9.8,1.7,2.5,3.6,5.2,6.7,6.1a5.784,5.784,0,0,0,7-2.9c1.2-2.6.2-5.6-1-8-1.3-2.7-2.9-5.2-4.3-7.8-1-1.8-2-3.7-3-5.4a114.082,114.082,0,0,0-9.6-13.2c-1.2-1.6-3.3.5-2.1,2Z" transform="translate(0 99.979)"/><path d="M158.653,55.8a51.845,51.845,0,0,1,5.8,14.2c.5,2.1,1.2,4.5.8,6.7-.1.7-.4,1.6-1.1,1.8-.9.3-1.8-.4-2.4-1-1.7-1.7-2.8-4.2-3.9-6.3l-4.4-7.8-8.4-15-9.7-17.1a1.526,1.526,0,0,0-2.6,1.6h0l19.3,34.3,4.9,8.7c1.2,2.2,2.7,4.5,5,5.5a4.418,4.418,0,0,0,5.6-2c1.1-2,.8-4.4.5-6.6a53.139,53.139,0,0,0-6.8-18.4,1.577,1.577,0,0,0-2.1-.5c-.7.2-.9,1.1-.5,1.9Z" transform="translate(0 99.979)"/><path d="M138.053,42a103.232,103.232,0,0,1,11.3,35.1,23.147,23.147,0,0,1,.4,5.9c-.2,1.2-1.3,3.2-2.8,2.4l.7.9a322.142,322.142,0,0,0-22.5-50.2c-.9-1.7-3.5-.2-2.6,1.5a307.164,307.164,0,0,1,19.2,41.1c.7,1.8,1.3,3.5,2,5.3.5,1.5.8,3.7,2.4,4.3,2.8,1,5.6-1.1,6.4-3.7a11.979,11.979,0,0,0,.2-5c-.2-1.8-.4-3.6-.7-5.3-.6-3.6-1.3-7.1-2.2-10.7a106.753,106.753,0,0,0-9.1-23.1c-.9-1.7-3.5-.2-2.7,1.5Z" transform="translate(0 99.979)"/><path d="M194.453,11.8a90.587,90.587,0,0,1,15.8,56.7,79.68,79.68,0,0,1-2.7,16.7c-.4,1.6,2,2.8,2.7,1.2,4-9.2,4.1-19.8,3.1-29.7a112.534,112.534,0,0,0-8.4-32.2,70.482,70.482,0,0,0-7.9-14.2c-1.1-1.5-3.7,0-2.6,1.5,5.9,7.9,9.7,17.4,12.3,26.8,2.9,10.2,4.6,20.9,4,31.5a43.417,43.417,0,0,1-3.1,14.7l2.7,1.2a93.566,93.566,0,0,0-4.7-60.4,82.192,82.192,0,0,0-8.6-15.3C195.953,8.7,193.352,10.2,194.453,11.8Z" transform="translate(0 99.979)"/><path d="M210.252,111c15.6-8.9,24.4-26.5,25.6-44.1,1.4-21.3-7.4-41.9-18.9-59.3-6.6-10.1-14.3-19.5-21.9-28.8-1.2-1.5-3.3.6-2.1,2.1,12.9,15.9,26.2,32.2,33.8,51.5,7,17.6,9.1,37.8.7,55.3a46.336,46.336,0,0,1-18.7,20.7,1.469,1.469,0,0,0-.5,2.1,1.434,1.434,0,0,0,2,.5Z" transform="translate(0 99.979)"/></g></svg>