<?xml version="1.0" encoding="UTF-8"?>
<svg width="156" height="156" viewBox="0 0 156 156" version="1.1" xmlns="http://www.w3.org/2000/svg">
        <path d="M78.298,0.288000000000011
C107.278,0.425000000000011
135.489,18.135
148.124,44.34
C159.037,66.975
158.023,94.939
145.488,116.728
C129.557,144.421
95.634,160.591
63.339,154.395
C31.789,148.343
5.37100000000004,121.221
0.985000000000014,88.418
C-3.34199999999998,56.052
14.7,21.807
45.202,7.55600000000004
C55.282,2.84700000000004
66.377,0.378000000000043
77.545,0.289000000000044
C77.7960000000001,0.288000000000011
78.047,0.288000000000011
78.298,0.288000000000011
ZM77.812,5.28800000000001
C50.632,5.416
24.298,21.988
12.474,46.512
C2.26700000000005,67.681
3.21500000000003,93.855
14.94,114.235
C29.87,140.188
61.586,155.283
91.8130000000001,149.485
C121.319,143.825
146.052,118.436
150.153,87.7550000000001
C154.211,57.3920000000001
137.199,25.366
108.775,12.086
C99.324,7.67000000000002
88.899,5.37200000000001
78.5170000000001,5.28900000000004
C78.282,5.28800000000001
78.047,5.28800000000001
77.812,5.28800000000001
ZM75.547,75.596
L51.852,61.916
C51.852,61.916
51.0170000000001,61.333
50.752,60.6060000000001
C50.179,59.032
51.24,57.169
53.319,57.2600000000001
C53.3920000000001,57.27
53.464,57.2790000000001
53.536,57.289
C53.914,57.372
54.008,57.407
54.352,57.586
L78.047,71.266
L101.742,57.586
C101.742,57.586
102.847,57.037
103.847,57.401
C105.64,58.054
106.141,60.706
104.242,61.916
L80.547,75.601
L80.547,97.715
L98.0220000000001,127.984
C99.096,130.014
98.537,130.294
97.4160000000001,131.188
C96.297,132.08
94.501,131.771
93.692,130.484
L78.047,103.385
C78.047,103.385
62.302,130.642
62.302,130.642
C61.94,131.133
61.783,131.227
61.487,131.399
C59.668,132.449
56.858,130.279
58.072,127.984
L75.547,97.715
L75.547,75.596
ZM78.285,24.343
C88.729,24.541
97.811,34.735
96.321,45.371
C95.103,54.066
86.883,61.247
78.047,61.247
C65.841,61.247
55.509,46.6710000000001
61.515,34.5940000000001
C64.5100000000001,28.5700000000001
70.926,24.473
77.809,24.343
C78.047,24.342
78.047,24.342
78.285,24.343
ZM77.8730000000001,29.343
C68.952,29.512
61.786,40.05
65.92,48.622
C69.567,56.186
81.0340000000001,58.53
87.326,52.531
C94.678,45.521
90.789,29.581
78.221,29.343
C78.047,29.342
78.047,29.342
77.8730000000001,29.343Z" fill="#446B9E"/>
</svg>
