<?xml version="1.0" encoding="UTF-8"?>
<svg width="156" height="156" viewBox="0 0 156 156" version="1.1" xmlns="http://www.w3.org/2000/svg">
  <path d="M17.252819,51.4833245 C19.508819,38.2193245 26.043719,25.6533245 35.926619,16.4533245 C47.251219,5.91132453 62.638519,-0.0506754685 78.132919,0.000324531462 C100.685019,0.213324531 122.463019,13.7553245 132.572019,33.7783245 C135.418019,39.4173245 137.325019,45.5063245 138.290019,51.7473245 C142.563019,56.1054245 146.190019,61.0868245 148.950019,66.5547245 C157.395019,83.2816245 157.572019,103.911525 149.445019,120.769425 C137.874019,144.768525 109.628019,159.654825 82.502719,154.451525 C80.738819,154.113225 78.996119,153.689925 77.279019,153.186325 C68.455119,155.666625 59.043119,156.235225 49.744919,154.451525 C24.811919,149.668725 4.09381899,127.925425 0.565418992,102.740525 C-2.01398101,84.3288245 4.34931899,64.8759245 17.252819,51.4833245 Z M139.018019,60.1284245 C139.212019,69.7184245 137.231019,79.3544245 133.066019,87.9933245 C130.253019,93.8273245 126.456019,99.1176245 121.931019,103.710225 C121.050019,109.492725 119.357019,115.146125 116.848019,120.433325 C110.652019,133.486725 99.561219,143.882525 86.370819,149.865525 C92.401419,150.781325 98.620419,150.723825 104.786019,149.541025 C127.674019,145.150425 146.717019,125.167925 149.956019,102.046825 C152.012019,87.3687245 147.887019,71.9812245 139.018019,60.1284245 Z M16.396919,60.2343245 C14.333919,62.9110245 12.515519,65.7782245 10.985919,68.8081245 C3.23391899,84.1634245 3.07071899,103.121825 10.532119,118.597925 C20.727319,139.744225 45.002419,153.187125 68.958919,150.036525 C50.575019,141.445525 36.493919,123.545225 33.416519,103.374525 C24.643319,94.1027245 18.585919,82.2520245 16.891919,69.5817245 C16.477519,66.4818245 16.316219,63.3549245 16.396919,60.2343245 Z M115.641019,109.290625 C101.632019,120.143525 82.987819,125.251625 64.998819,121.448725 C55.770019,119.497825 47.154519,115.208325 39.818019,109.290625 C40.659519,112.377525 41.767219,115.392225 43.142319,118.289425 C49.900019,132.526925 62.990619,143.321725 78.125119,147.978425 C95.877819,142.268325 110.442019,127.210125 115.641019,109.290625 Z M77.891119,40.3023245 C63.661019,44.7393245 51.171519,54.7193245 44.213519,67.8982245 C38.841219,78.0731245 36.833019,89.9411245 38.256919,101.374425 C51.269919,113.898425 70.288019,120.359425 88.752219,116.697725 C99.572119,114.552025 109.520019,108.909325 117.322019,101.100625 C119.448019,83.7072245 112.938019,65.4454245 100.253019,53.3533245 C93.939619,47.3343245 86.230919,42.8733245 77.891119,40.3023245 Z M68.827719,38.2963245 C66.480319,37.9743245 64.106919,37.7983245 61.722219,37.7763245 C61.479119,37.7753245 61.236019,37.7753245 60.992819,37.7763245 C46.455319,37.9153245 32.280219,44.0643245 21.902319,54.0853245 C20.545219,64.7386245 22.147719,75.7891245 26.763419,85.5132245 C28.408019,88.9779245 30.427319,92.2378245 32.759519,95.2543245 C32.560919,78.2458245 39.610919,61.1874245 52.036619,49.4803245 C56.961619,44.8403245 62.669419,41.0723245 68.827719,38.2963245 Z M133.545019,53.8693245 L133.255019,53.5873245 C122.965019,43.6593245 108.822019,37.9133245 94.480019,37.7763245 C94.236919,37.7753245 93.993719,37.7753245 93.750619,37.7763245 C91.284119,37.7993245 88.827819,37.9963245 86.398719,38.3553245 C98.868919,44.0373245 109.525019,53.7273245 115.854019,65.8929245 C120.499019,74.8237245 122.771019,84.9285245 122.644019,95.0000245 C128.420019,87.3965245 132.355019,78.4154245 133.625019,68.9191245 C134.293019,63.9240245 134.248019,58.8520245 133.545019,53.8693245 Z M131.883019,46.0483245 C129.196019,36.6393245 124.138019,27.9003245 117.119019,21.0463245 C106.811019,10.9813245 92.690519,5.13732453 78.101219,5.00032453 C77.858019,4.99932453 77.614919,4.99932453 77.371719,5.00032453 C57.059619,5.19132453 37.520419,17.0423245 27.994719,34.8213245 C26.126119,38.3083245 24.654619,41.9983245 23.583219,45.8023245 C34.180019,37.5813245 47.505119,32.9043245 60.961119,32.7763245 C61.225419,32.7753245 61.489719,32.7753245 61.754019,32.7763245 C67.121819,32.8273245 72.450419,33.6343245 77.590119,35.1053245 C82.831219,33.6253245 88.265519,32.8283245 93.718819,32.7763245 C93.983219,32.7753245 94.247519,32.7753245 94.511819,32.7763245 C108.022019,32.9053245 121.263019,37.8143245 131.883019,46.0483245 Z" fill="#446B9E"></path>
</svg>
