<svg version="1.1" xmlns="http://www.w3.org/2000/svg" width="1024" height="1024" viewBox="0 0 1024 1024">
<title>twitter</title>
<path d="M872.533 151.552c-93.525-97.92-222.592-151.296-360.533-151.296-280.277 0-511.701 231.339-511.701 511.744s231.381 511.744 511.701 511.744 511.787-231.339 511.787-511.744c0-137.941-53.376-267.008-151.253-360.448zM512 845.739c-155.733 0-280.32-124.587-280.32-280.32 0-129.067 88.96-218.069 164.608-293.717 53.419-53.419 102.4-102.4 115.712-160.213 13.355 53.419 62.293 102.357 115.712 155.733 75.648 75.691 164.651 164.693 164.651 293.717 0 155.733-124.587 280.363-280.363 284.8z"></path>
</svg>
