<?xml version="1.0" encoding="UTF-8"?>
<svg width="156" height="156" viewBox="0 0 156 156" version="1.1" xmlns="http://www.w3.org/2000/svg">
  <path d="M13.4899058,34.573 C21.1904058,22.982 31.8981058,13.321 44.8536058,7.268 C54.9332058,2.559 66.0287058,0.09 77.1965058,0.001 C77.4476058,0 77.6987058,0 77.9498058,0 C106.930006,0.137 135.141006,17.847 147.775006,44.052 C158.677006,66.6635 157.674006,94.6492 145.140006,116.44 C129.211006,144.1346 95.2856058,160.3026 62.9903058,154.1075 C31.4411058,148.0555 5.02250579,120.9324 0.637005791,88.1296 C-1.83239421,69.6587 2.98380579,50.576 13.2435058,34.946 C13.3140058,34.814 13.3966058,34.69 13.4899058,34.573 Z M74.3506058,150.3168 C80.0268058,150.6399 85.7723058,150.289 91.4650058,149.197 C108.715006,145.8879 124.333006,135.8481 135.152006,121.9327 L57.9631058,121.9327 L74.3506058,150.3168 Z M68.2237058,149.7047 L29.5672058,82.7497 L13.1164058,111.2434 C13.5875058,112.155 14.0792058,113.0564 14.5914058,113.9468 C25.6934058,133.2435 46.0746058,146.5383 68.2237058,149.7047 Z M55.0763058,38.567 L32.4540058,77.7497 L55.0763058,116.9327 L100.321006,116.9327 L122.943006,77.7497 L100.321006,38.567 L55.0763058,38.567 Z M144.632006,50.183 L106.094006,116.9327 L138.722006,116.9327 C144.539006,108.0362 148.483006,97.8551 149.864006,87.0125 C151.452006,74.5349 149.485006,61.7841 144.632006,50.183 Z M10.5497058,105.6891 L49.3028058,38.567 L16.4498058,38.567 C14.8502058,41.019 13.4031058,43.575 12.1257058,46.224 C3.25050579,64.6265 2.80890579,86.8152 10.5497058,105.6891 Z M87.0696058,5.614 L103.583006,34.217 C103.857006,34.472 103.979006,34.768 104.075006,35.068 L125.830006,72.7497 L142.054006,44.65 C134.795006,30.569 123.142006,18.673 108.427006,11.798 C101.681006,8.646 94.4382058,6.573 87.0696058,5.614 Z M80.9863058,5.078 C80.0474058,5.034 79.1081058,5.009 78.1691058,5.001 C77.9338058,5 77.6985058,5 77.4633058,5 C55.3158058,5.105 33.6696058,16.167 20.0311058,33.567 L52.9263058,33.567 C53.1294058,33.543 53.3698058,33.546 53.6690058,33.567 L97.4342058,33.567 L80.9863058,5.078 Z"></path>
</svg>
