<svg xmlns="http://www.w3.org/2000/svg" viewBox="0 0 100 101" width="100" height="101">
<title>HHS</title>
<path class="st0" d="M89.5,16.6c0.2,3.4-2.6,5.6-4.6,7.6L63.6,42.1c-1.9,1.8-4.7,3.2-5.7,5.9c-1.4,3.5-1.9,7.4-2.5,11.3
	c-0.3,2.8-3,5.2-5.4,6.3c-1.9,0.7-4.2,0.3-6.2,0.5l-7.4,0c-0.6,0.1-1.2,0.5-1.5,1l-0.3,0.7c-0.8,0.1-0.5-0.6-0.6-1.1
	c0-1.6,0.4-3.3,1.6-4.3c0.6-0.7,1.5-0.8,2.4-1l10.8-0.2c0.6,0,1.1-0.4,1.5-0.7l0.4-0.8c0.9-5.4,1.4-10.9,4-15.5
	c2.5-2.9,5.6-4.9,8.4-7.4c6.4-5.4,13-11,19.4-16.5c1.8-1.7,3.7-3.9,4.1-6.6l0.2-0.7C88.2,13.6,89.4,15,89.5,16.6 M95.7,22.7
	c-0.2-1.1-0.8-1.7-1.6-2.6c-0.4-0.2-0.7-0.8-1.2-0.6c0.1,2.2-1.3,3.9-2.9,5.4l-9.1,8L67.9,43.8c-2.4,2.2-5.6,4.1-6.6,7.3
	c-0.8,2.9-1.3,6-1.5,9.1l0.8,1.3c0.4,1.6-1.2,2.4-1.7,3.6c-0.3,0.7-1,1.3-0.7,2.2c0.5,0.9,1.6,0.3,2.4,0.4c1.6,0.6-0.8,1.7,0.1,2.6
	c0.2,0.3,0.6,0.2,0.9,0.3c0.2,0.3-0.2,0.4-0.3,0.6c-0.2,0.4,0.2,0.7,0.4,0.9c1.5,0.2,0.6,1.9,0.8,2.8c0.9,2.5,4.2,1.1,6.3,1.2
	c1.3,0.2,2.7,0.5,3.4,1.7c0.5,0.8,0.6,1.9,0.1,2.8c-2,2.9-5.9,3.7-6.9,7.2c-0.4,2.1,0.5,4.3,2.1,5.4c3.4,1.9,6.7-0.7,9.2-2.5v-0.2
	c-0.1-0.1-0.1-0.4-0.4-0.4c-0.8,0.3-1.6,0.7-2.6,0.5c-1.2-0.1-2.3-0.8-2.9-1.8c-3-6.2,5.8-6.5,7.3-10.9c0.2-0.9,0.2-2-0.5-2.6
	c-2.8-2.7-7.4,0.9-10.1-2c-0.4-0.6-0.4-1.5-0.2-2.1c0-0.5-0.5-0.5-0.8-0.9c-0.1-0.2-0.1-0.5,0.1-0.7c0.6-0.8-0.6-0.1-0.9-0.7
	c-0.4-0.5-0.1-1.1-0.1-1.7c-0.6-1-2.5-0.1-2.6-1.6l2.1-3.9c0.2-1.1-0.8-1.5-0.9-2.5c0.6-3.2,0.7-6.6,2.9-9.1l15.4-13.1l8.7-7.4
	C93.4,27.6,96,26,95.7,22.7 M92.2,38.9c0.8-1.6,0.3-3.7-0.7-5.1c-1.9,3.2-5,4.8-7.6,7.3L71.8,51.4c-2.3,1.6-2.5,4.2-2.9,6.6
	c-0.1,1.1-0.4,2.3,0.4,3.1c0.3,1.3-0.9,2.1-1.4,3.1c-0.1,0.4-0.1,0.8,0.1,1.1c0.5,0.5,1.3,0.2,1.9,0.3c0.7,0.3,0,1.1,0.3,1.7
	c0.2,0.5,0.7,0.3,1,0.5c-1,0.9,0.6,1,0.7,1.7c-0.3,1.1,0,2.2,0.8,2.8c3,1.1,5.8-0.5,8.5-1.1c4.1-0.7,6.6,2.9,10.4,3
	c3.7,0.2,6.2-2.2,8.3-4.8l-0.1-0.1c-1.6,0.2-3.4,0.3-5.1,0c-3.3-1-6.8-2.4-10.5-1.3c-2.3,0.5-4.3,2.2-6.8,1.8
	c-0.8-0.3-0.8-1.1-0.9-1.8c-0.3-0.5-1-0.2-1.3-0.7c0-0.3,0.1-0.6,0.2-0.8c0-0.5-0.4,0-0.7-0.2c-0.6-0.2-0.4-0.8-0.4-1.4
	c-0.2-0.5-0.9-0.3-1.3-0.5c-0.3-0.1-0.4-0.5-0.4-0.8c0.3-1,1.1-1.7,1.1-2.8c-0.8-2.2-0.3-5.1,1.5-6.7l9.9-8.3
	C87.7,43.7,90.5,41.6,92.2,38.9 M54.9,75c-5.7-2.4-11.6-4.2-17.5-5.9c-2.3-0.4-4.8-1.3-7.2-0.6c-1.4,0.6-2.3,1.8-2.5,3.3
	c0,0.4-0.3,1.4,0.5,1.3v-0.1c1-1.8,3.4-0.9,4.9-0.7c9.2,2.4,18.1,5.5,26.3,10.1c0.8,0.5,1.5,1.1,1.9,1.9c0.2,0.7,0,1.5-0.3,2.1
	c-2.2,3.1-6.6,4.6-6,9.3c0.4,1.6,1.3,3.2,2.8,3.9c3.1,1.5,6.3-0.3,8.8-1.9c0.7-0.2,0.1-0.5-0.1-0.9c-0.9,0.2-2,0.2-2.8,0
	c-1.9-0.5-3.1-2.2-3.4-4.1c-0.9-5.2,5.2-5.6,6.3-10c0.1-1.1-0.6-2.1-1.3-2.7C62,78,58.4,76.5,54.9,75 M52.9,93.9l-2.2,0
	c-1.9,0-2.6,1.2-2.6,2.4c0,0.8,0.3,1.4,0.7,1.7c0.4,0.4,0.9,0.6,1.8,0.6l2.3,0l0-0.3c-0.7,0-0.8-0.1-0.8-0.2c0-0.2,0-0.8-0.1-1.8
	c0-1.1,0-1.6,0-1.8c0-0.2,0.1-0.2,0.8-0.3L52.9,93.9z M51.4,98.3c0,0.1,0,0.2-0.5,0.2c-1.3,0-1.9-0.5-1.9-2c0-1.5,0.5-2.1,1.8-2.1
	c0.4,0,0.5,0,0.5,0.3L51.4,98.3z M47.8,94l-3.8-0.3c0,0.3-0.2,0.9-0.3,1.3l0.3,0.1l0.2-0.5c0.2-0.4,0.3-0.6,0.9-0.5l1.1,0.1
	c0.1,0,0.1,0,0.1,0.1l-0.1,1.7c0,0.1-0.1,0.1-0.1,0.1l-0.5,0c-0.5,0-0.6-0.2-0.6-0.7l-0.3,0c0,0.2,0,0.5,0,0.8
	c0,0.3-0.1,0.5-0.1,0.8l0.3,0c0.1-0.5,0.2-0.6,0.9-0.5l0.2,0c0.2,0,0.2,0.1,0.2,0.1L46,98.2c0,0.1-0.1,0.1-0.1,0.1l-0.6-0.1
	c-0.9-0.1-1.1-0.2-1.2-1.1l-0.3,0c0,0.2,0,1,0,1.3c0.3,0,0.7,0,1.1,0l2.6,0.2l0-0.3c-0.6-0.1-0.7-0.1-0.7-0.3c0-0.2,0-0.8,0.1-1.8
	c0.1-1.1,0.1-1.6,0.2-1.8c0-0.2,0.1-0.2,0.7-0.2L47.8,94z M43.4,93.6L41,93.2l0,0.3c0.8,0.2,0.8,0.2,0.8,0.4l-0.3,1.6
	c-0.1,0-0.3-0.1-0.5-0.1c-1.2-0.2-2.1,0-2.3,1c-0.1,0.3,0,0.7,0.2,0.9c0.2,0.3,0.6,0.5,1.1,0.6l2.5,0.5l0.1-0.3
	c-0.7-0.2-0.7-0.2-0.7-0.4c0-0.2,0.1-0.8,0.3-1.8c0.2-1,0.3-1.6,0.4-1.8c0.1-0.2,0.1-0.2,0.8-0.1L43.4,93.6z M41.1,97.6
	c0,0.1-0.1,0.2-0.4,0.1c-0.7-0.1-1.2-0.4-1.1-1.2c0.2-0.9,0.8-0.9,1.5-0.8c0.1,0,0.2,0,0.3,0.1L41.1,97.6z M39.8,93l-1.8-0.5
	L38,92.8c0.6,0.2,0.7,0.3,0.6,0.5c0,0.1-0.2,0.4-0.5,0.7c-0.1,0.1-0.1,0.1-0.5,0c-0.7-0.2-1-0.3-1.1-0.4c0,0-0.1,0-0.1-0.1
	c0-0.1-0.1-0.9,0-1c0-0.2,0.1-0.2,0.8-0.1l0.1-0.3l-2.2-0.6l-0.1,0.3c0.5,0.1,0.6,0.2,0.6,0.7l0.4,3.5c0,0.2,0,0.6,0,0.8l0.3,0.1
	c0.1-0.2,0.2-0.3,0.5-0.8l1.9-2.5c0.4-0.5,0.5-0.6,1-0.5L39.8,93z M37.7,94.4C37.7,94.5,37.7,94.5,37.7,94.4c0.1,0.1,0,0.1,0,0.2
	l-1.1,1.5l-0.2-1.8c0,0,0-0.1,0-0.2c0,0,0,0,0.1,0L37.7,94.4z M34.8,91.6l-2.1-0.9L32.6,91c0.6,0.3,0.6,0.3,0.6,0.5
	c0,0.2-0.1,0.4-0.6,1.5c0,0.1,0,0.1-0.3,0C32,92.9,32,92.8,32,92.7l-0.5-2.5l-1-0.4L30.3,90c0.3,0.1,0.3,0.2,0.4,0.7l0.4,1.8
	c0,0.1,0,0.2,0,0.2c0,0.1-1.1-0.2-1.5,0.7c-0.2,0.4-0.1,0.7,0,1c0.2,0.3,0.4,0.4,0.9,0.6l2.3,1l0.1-0.3c-0.6-0.3-0.6-0.3-0.6-0.5
	c0.1-0.2,0.3-0.7,0.7-1.7c0.4-1,0.6-1.5,0.7-1.7c0.1-0.2,0.1-0.2,0.8,0L34.8,91.6z M31.8,95c-0.1,0.2-0.1,0.2-0.5,0
	c-0.7-0.3-0.9-0.8-0.7-1.3c0.1-0.4,0.5-0.8,1.5-0.4c0.4,0.2,0.4,0.2,0.3,0.3L31.8,95z M30,89.5l-2.2-1.1l-0.1,0.3
	c0.6,0.4,0.6,0.4,0.6,0.6c-0.1,0.1-0.2,0.3-0.3,0.7l-1.5,2.8l-0.7-0.4c-0.2-0.1-0.2-0.3-0.1-1.2l-0.3-0.1c-0.1,0.3-0.2,0.6-0.5,1.2
	c0.2,0.1,0.5,0.2,0.7,0.3l2.1,1.1c0.1,0.1,0.2,0.1,0.3,0.2c0.1,0.1,0.2,0.1,0.3,0.2c0.3-0.6,0.5-0.9,0.7-1.1l-0.3-0.2
	c-0.6,0.6-0.8,0.7-1,0.6l-0.7-0.4l1.4-2.8c0.2-0.4,0.3-0.6,0.4-0.7c0.1-0.2,0.2-0.2,0.8,0.1L30,89.5z M26.9,88l-1.6-1.1l-0.2,0.2
	c0.5,0.4,0.5,0.4,0.4,0.6c0,0.1-0.2,0.4-0.3,0.5l-1.8,2.6l0,0l1.1-4c0-0.1,0.1-0.2,0.1-0.3l-0.4-0.3c-0.1,0.1-0.2,0.2-0.3,0.2
	l-3.3,2.4v0l2.1-3.1c0.1-0.1,0.2-0.1,0.8,0.2l0.2-0.2l-2-1.3l-0.2,0.2c0.6,0.5,0.6,0.5,0.5,0.7c-0.1,0.2-0.4,0.7-1,1.5
	c-0.6,0.9-0.9,1.3-1.1,1.5c-0.1,0.1-0.2,0.1-0.8-0.2l-0.2,0.2l1.5,1l3.2-2.3l0,0l-1,3.6c0,0.1-0.1,0.1-0.1,0.2l1.5,1l0.2-0.2
	c-0.6-0.5-0.6-0.5-0.5-0.7c0.1-0.2,0.4-0.7,1-1.5c0.6-0.9,0.9-1.3,1.1-1.5c0.1-0.1,0.2-0.1,0.8,0.2L26.9,88z M21.7,84.4l-2.9-2.5
	c-0.2,0.2-0.7,0.6-1,0.9L18,83l0.4-0.3c0.4-0.2,0.6-0.3,1,0.1l0.9,0.8c0.1,0.1,0.1,0.1,0,0.2l-1.1,1.3c-0.1,0.1-0.1,0.1-0.2,0
	l-0.3-0.3c-0.4-0.3-0.4-0.5-0.1-0.9l-0.2-0.2c-0.1,0.1-0.3,0.4-0.5,0.6c-0.2,0.3-0.4,0.4-0.5,0.6l0.2,0.2c0.4-0.3,0.5-0.4,1,0.1
	l0.1,0.1c0.2,0.1,0.2,0.2,0.1,0.2l-1,1.2c-0.1,0.1-0.1,0.1-0.2,0l-0.5-0.4c-0.7-0.6-0.8-0.8-0.3-1.6l-0.3-0.1
	c-0.1,0.2-0.5,0.8-0.8,1.1c0.2,0.2,0.6,0.4,0.9,0.6l1.9,1.7l0.2-0.2c-0.5-0.5-0.5-0.5-0.4-0.6c0.1-0.2,0.5-0.6,1.2-1.4
	c0.7-0.8,1-1.2,1.2-1.4c0.1-0.1,0.2-0.1,0.7,0.3L21.7,84.4z M18.5,81.5l-1.4-1.5l-0.2,0.2c0.5,0.6,0.5,0.7,0.4,0.8
	c-0.2,0.2-0.6,0.6-1.3,1.3l-1,0.9l0,0l0.6-2.8c0.1-0.6,0.2-1.1,0.5-1.6l-0.3-0.4c-0.4,0.4-1.2,1.2-2.1,2.1c-0.3,0.2-0.6,0.5-0.9,0.8
	c-0.3,0.2-0.4,0.2-0.8-0.2l-0.2,0.2l1.3,1.4l0.2-0.2c-0.5-0.6-0.5-0.6-0.4-0.8c0.2-0.2,0.6-0.5,1.3-1.3l0.8-0.7l0,0l-0.8,3.7
	c0,0.2-0.1,0.3-0.1,0.4l1,1l0.2-0.2c-0.4-0.5-0.4-0.6-0.3-0.7c0.1-0.2,0.6-0.6,1.3-1.3c0.8-0.7,1.2-1.1,1.4-1.2
	c0.1-0.1,0.2-0.1,0.7,0.3L18.5,81.5z M14.5,77.1L13,75.1l-0.2,0.2c0.4,0.6,0.4,0.7,0.3,0.8c-0.1,0.1-0.3,0.2-0.6,0.5l-2.5,1.9
	l-0.5-0.6c-0.1-0.2,0-0.4,0.4-1.1l-0.2-0.2c-0.2,0.2-0.5,0.5-1,0.9c0.2,0.2,0.4,0.4,0.5,0.6l1.4,1.9c0.1,0.1,0.2,0.2,0.2,0.3
	c0.1,0.1,0.1,0.2,0.2,0.3c0.5-0.3,0.8-0.5,1.1-0.7l-0.1-0.3c-0.8,0.2-1,0.3-1.2,0.1l-0.5-0.6l2.5-1.9c0.3-0.2,0.5-0.4,0.6-0.4
	c0.2-0.1,0.2-0.1,0.7,0.5L14.5,77.1z M5.8,72.5C6.3,73.6,7.7,74,9,73.3c1.3-0.7,1.7-2,1.1-3.1c-0.6-1.1-1.9-1.5-3.2-0.8
	C5.6,70.1,5.2,71.4,5.8,72.5 M9.8,70.3c0.3,0.6,0,1.5-1.3,2.2C7.3,73.2,6.4,73,6,72.4c-0.3-0.6,0-1.5,1.3-2.2
	C8.6,69.5,9.5,69.7,9.8,70.3 M8.8,67.8L8,65.8l-0.3,0.1C8,66.6,8,66.7,7.8,66.7l-1.5,0.6c-0.1,0-0.1,0-0.2-0.1l-0.2-0.4
	c-0.2-0.5-0.1-0.6,0.3-0.8l-0.1-0.3C6,65.8,5.7,65.9,5.4,66c-0.3,0.1-0.5,0.2-0.7,0.3l0.1,0.3c0.5-0.1,0.6-0.1,0.9,0.6l0.1,0.2
	c0.1,0.2,0,0.2,0,0.2l-1.4,0.6c-0.1,0-0.1,0-0.2-0.1l-0.2-0.6c-0.4-0.9-0.3-1,0.4-1.6l-0.2-0.2C4,65.8,3.3,66.2,3,66.3
	c0.1,0.2,0.3,0.6,0.5,1l1,2.4l0.3-0.1c-0.2-0.6-0.2-0.6,0-0.7c0.2-0.1,0.7-0.3,1.7-0.7c1-0.4,1.5-0.6,1.7-0.7c0.2,0,0.2,0,0.5,0.5
	L8.8,67.8z M6.7,62.2l-0.5-2.3L5.8,60c0.1,0.7,0.1,0.7-0.1,0.8C5.6,60.8,5,61,4.3,61.1c-0.2,0-0.2,0-0.3-0.1l-0.4-1.7
	c0-0.2,0-0.2,0.2-0.2c0.8-0.2,1.3-0.3,1.5-0.3c0.2,0,0.2,0,0.4,0.7L6,59.3L5.5,57l-0.3,0.1c0.1,0.7,0.1,0.7-0.1,0.8
	c-0.2,0.1-0.8,0.2-1.8,0.4c-1,0.2-1.6,0.4-1.8,0.4c-0.2,0-0.2,0-0.4-0.7l-0.3,0.1l0.5,2.3l0.3-0.1c-0.1-0.7-0.1-0.7,0.1-0.8
	c0.1,0,0.5-0.1,0.8-0.2L3,59.2c0.2,0,0.2,0,0.3,0.1l0.4,1.7c0,0.2,0,0.2-0.2,0.2l-0.4,0.1c-0.3,0.1-0.7,0.2-0.9,0.2
	c-0.2,0-0.2,0-0.4-0.7L1.5,61L2,63.3l0.3-0.1c-0.1-0.7-0.1-0.7,0.1-0.8c0.2-0.1,0.7-0.2,1.8-0.4c1-0.2,1.6-0.4,1.8-0.4
	c0.2,0,0.2,0,0.4,0.7L6.7,62.2z M5.5,56.8L5,53c-0.3,0-0.9,0-1.3,0l-0.1,0.3l0.5,0.1c0.5,0.1,0.6,0.2,0.7,0.7l0.1,1.2
	c0,0.1,0,0.1-0.1,0.1l-1.7,0.2c-0.1,0-0.1,0-0.1-0.1l-0.1-0.5c-0.1-0.5,0-0.6,0.5-0.7l0-0.3c-0.2,0-0.5,0.1-0.8,0.1
	c-0.3,0-0.5,0.1-0.8,0.1l0,0.3c0.5,0,0.6,0.1,0.7,0.8l0,0.2c0,0.2,0,0.2-0.1,0.2L1,55.9c-0.1,0-0.1,0-0.2-0.1l-0.1-0.6
	c-0.1-0.9,0-1.1,0.8-1.4l-0.1-0.3c-0.2,0.1-0.9,0.2-1.3,0.3c0.1,0.3,0.2,0.6,0.2,1l0.3,2.5l0.3,0c0-0.6,0-0.7,0.2-0.7
	C1.4,56.6,2,56.5,3,56.4c1-0.1,1.6-0.2,1.8-0.2c0.2,0,0.2,0,0.3,0.6L5.5,56.8z M4.9,52.7l0-1.8l-0.3,0c0,0.6-0.1,0.7-0.3,0.7
	c-0.1,0-0.4-0.1-0.8-0.3c-0.1-0.1-0.2-0.1-0.2-0.5c0-0.7,0-1,0-1.2c0,0,0-0.1,0.1-0.1c0.1,0,0.8-0.4,1-0.4c0.2,0,0.2,0,0.3,0.7h0.3
	l0-2.3l-0.3,0c0,0.6-0.1,0.6-0.5,0.8l-3.3,1.4C0.6,49.9,0.2,50,0,50.1l0,0.4c0.3,0.1,0.4,0.1,0.9,0.3l3,1.1c0.6,0.2,0.8,0.3,0.8,0.8
	L4.9,52.7z M3,51C3,51.1,3,51.1,3,51c-0.1,0.1-0.1,0.1-0.1,0.1l-1.7-0.7l1.7-0.7c0,0,0.1,0,0.2,0c0,0,0,0,0,0.1L3,51z M4.9,47.4
	l0.3-3.7c-0.3,0-1.1-0.2-1.4-0.3l-0.1,0.3c0.9,0.5,1.1,0.6,1,1.2l-0.1,0.8c0,0.2-0.1,0.3-0.3,0.2l-2.7-0.2c-0.3,0-0.7-0.1-0.9-0.1
	c-0.2,0-0.2-0.1-0.2-0.7l-0.3,0L0.1,47l0.3,0c0.1-0.6,0.1-0.7,0.3-0.7c0.2,0,0.8,0,1.8,0.1c1,0.1,1.6,0.1,1.8,0.2
	c0.2,0,0.2,0.1,0.2,0.7L4.9,47.4z M5.3,43l0.4-2.4l-0.3,0c-0.2,0.7-0.2,0.7-0.4,0.7c-0.1,0-0.4,0-0.8-0.1l-3.1-0.5l0.1-0.8
	c0-0.2,0.3-0.3,1.1-0.4l0-0.3c-0.3,0-0.7,0-1.3-0.1c0,0.2,0,0.5-0.1,0.8l-0.4,2.3c0,0.1-0.1,0.3-0.1,0.4c0,0.1-0.1,0.3-0.1,0.4
	c0.6,0.1,1,0.2,1.2,0.3L1.8,43c-0.7-0.4-0.9-0.5-0.9-0.8l0.1-0.8L4.2,42c0.4,0.1,0.6,0.1,0.8,0.2C5.1,42.2,5.1,42.2,5,43L5.3,43z
	 M5.8,39.8l0.6-2.3l-0.3-0.1c-0.2,0.6-0.3,0.7-0.5,0.7c-0.2,0-0.7-0.2-1.5-0.4c-0.2-0.1-0.2-0.1-0.2-0.3l0.5-1.7
	c0.1-0.2,0.1-0.2,0.3-0.1C5.6,35.8,6.2,36,6.3,36c0.2,0.1,0.2,0.1,0,0.8l0.3,0.1l0.6-2.3L7,34.6c-0.2,0.7-0.3,0.7-0.5,0.7
	c-0.2,0-0.8-0.2-1.8-0.5c-1-0.3-1.5-0.4-1.8-0.5c-0.2-0.1-0.2-0.1,0-0.8l-0.3-0.1l-0.6,2.3l0.3,0.1C2.6,35.1,2.6,35,2.8,35
	c0.1,0,0.5,0.1,0.8,0.2l0.4,0.1c0.2,0.1,0.2,0.1,0.2,0.3l-0.5,1.7c-0.1,0.2-0.1,0.2-0.3,0.1l-0.4-0.1c-0.3-0.1-0.7-0.2-0.8-0.3
	c-0.2-0.1-0.2-0.1,0-0.8l-0.3-0.1l-0.6,2.3l0.3,0.1c0.2-0.7,0.3-0.7,0.5-0.7c0.2,0,0.7,0.2,1.8,0.5c1,0.3,1.5,0.4,1.8,0.5
	c0.2,0.1,0.2,0.1,0,0.8L5.8,39.8z M9.7,27.7c0,0.3,0,0.6-0.1,0.8c-0.1,0.3-0.3,0.3-0.8,0.5c-0.2-0.4-0.4-0.8-0.6-1
	c-0.3-0.4-0.3-0.7-0.2-1l-0.3-0.1l-0.7,1.4l0.3,0.1c0.2-0.3,0.3-0.3,0.5-0.2c0.2,0.1,0.5,0.5,0.7,0.9c-0.7,0.1-1.4,0.2-2.1,0.2
	c0-0.5-0.1-1-0.6-1.2c-0.5-0.2-1,0-1.2,0.6c-0.3,0.7-0.1,1.1,0.3,1.3c0.2,0.1,0.5,0.1,1.2,0.1c0,1,0.3,1.5,0.9,1.8
	c0.6,0.3,1.5,0.1,1.9-0.7c0.2-0.5,0.2-1,0.1-1.4c0.5-0.2,0.8-0.3,0.9-0.6c0.1-0.3,0.2-0.7,0.1-1.1L9.7,27.7z M6.1,29.3
	c-0.4,0.1-0.7,0.1-0.9,0c-0.3-0.1-0.4-0.4-0.3-0.6c0.1-0.3,0.5-0.3,0.7-0.2C5.9,28.7,6.2,29,6.1,29.3 M8.6,30.6
	C8.4,31.2,7.5,31.2,7,31c-0.4-0.2-0.6-0.5-0.6-1c0.5,0,1.7-0.1,2.3-0.2C8.8,30.1,8.8,30.4,8.6,30.6 M11.4,26l1.4-1.9l-0.2-0.2
	c-0.4,0.5-0.5,0.6-0.7,0.5c-0.2-0.1-0.6-0.4-1.3-0.9c-0.2-0.1-0.2-0.1-0.1-0.3l1-1.5c0.1-0.1,0.1-0.1,0.3,0c0.7,0.5,1.1,0.8,1.3,0.9
	c0.1,0.1,0.1,0.2-0.2,0.8l0.2,0.2l1.3-1.9l-0.2-0.2c-0.4,0.5-0.5,0.6-0.6,0.5c-0.2-0.1-0.7-0.4-1.5-1c-0.9-0.6-1.3-0.9-1.5-1.1
	c-0.1-0.1-0.1-0.2,0.2-0.8l-0.2-0.2l-1.3,1.9L9.5,21c0.4-0.5,0.5-0.6,0.6-0.5c0.1,0.1,0.5,0.3,0.7,0.5l0.4,0.3
	c0.2,0.1,0.2,0.1,0.1,0.3l-1,1.5c-0.1,0.1-0.2,0.1-0.3,0l-0.4-0.3c-0.3-0.2-0.6-0.4-0.7-0.5c-0.1-0.1-0.1-0.2,0.2-0.8l-0.2-0.2
	l-1.4,1.9l0.2,0.2c0.4-0.5,0.5-0.6,0.6-0.5c0.2,0.1,0.7,0.4,1.5,1c0.9,0.6,1.3,0.9,1.5,1.1c0.1,0.1,0.1,0.2-0.2,0.8L11.4,26z
	 M11.3,18.5c0.5-0.5,0.5-0.5,0.7-0.4c0.2,0.1,0.6,0.5,1.9,1.6c0.9,0.9,1.9,0.7,2.6-0.1c1.2-1.3,0.5-2.1-0.3-2.8
	c-1.1-1-1.5-1.4-1.7-1.5c-0.1-0.1-0.1-0.2,0.3-0.7l-0.2-0.2l-1.3,1.4l0.2,0.2c0.5-0.5,0.6-0.5,0.7-0.4c0.2,0.1,0.6,0.5,1.4,1.2
	c1,0.9,1.4,1.5,0.6,2.3c-0.7,0.8-1.4,0.3-1.8,0c-1.3-1.1-1.7-1.5-1.8-1.7c-0.1-0.2-0.1-0.2,0.3-0.7l-0.2-0.2l-1.6,1.7L11.3,18.5z
	 M18,17.6l1.5-1.3l-0.2-0.2c-0.5,0.4-0.6,0.4-0.7,0.3c-0.1-0.1-0.3-0.3-0.4-0.4l-2.1-2.4l0,0l3.6,2.1c0.1,0.1,0.2,0.1,0.2,0.2
	l0.4-0.3c-0.1-0.1-0.1-0.2-0.1-0.3l-1.5-3.8l0,0l2.5,2.9c0.1,0.1,0.1,0.2-0.4,0.7l0.2,0.2l1.8-1.5l-0.2-0.2
	c-0.6,0.5-0.6,0.5-0.8,0.3c-0.2-0.2-0.5-0.6-1.2-1.4c-0.7-0.8-1-1.2-1.2-1.4c-0.1-0.2-0.1-0.2,0.4-0.7l-0.2-0.2l-1.4,1.2l1.4,3.7
	l0,0L16.5,13c-0.1,0-0.1-0.1-0.2-0.1L14.9,14l0.2,0.2c0.6-0.4,0.6-0.5,0.8-0.3c0.2,0.2,0.5,0.6,1.2,1.4c0.7,0.8,1,1.2,1.2,1.4
	c0.1,0.2,0.1,0.2-0.4,0.7L18,17.6z M23.1,13.4l1.5-1l-0.2-0.3c-0.6,0.3-0.7,0.3-0.8,0.1c0-0.1-0.1-0.4-0.2-0.9c0-0.2,0-0.2,0.3-0.4
	c0.6-0.4,0.9-0.5,1-0.6c0,0,0.1,0,0.1,0c0.1,0.1,0.7,0.5,0.8,0.6c0.1,0.1,0.1,0.2-0.5,0.6l0.2,0.3l1.9-1.3l-0.2-0.2
	c-0.5,0.3-0.6,0.3-0.9,0l-2.9-2c-0.2-0.1-0.5-0.4-0.7-0.5L22.4,8c0.1,0.3,0.1,0.4,0.2,0.9l0.6,3.1c0.1,0.6,0.1,0.8-0.3,1.1
	L23.1,13.4z M23.4,10.8C23.4,10.8,23.3,10.9,23.4,10.8c-0.1,0-0.1,0-0.1-0.1l-0.4-1.8l1.5,1.1c0,0,0.1,0.1,0.1,0.1c0,0,0,0,0,0.1
	L23.4,10.8z M27.5,10.5l1.8-0.9l-0.1-0.3c-0.8,0.3-0.8,0.3-0.9,0.2c-0.1-0.2-0.4-0.7-0.8-1.6l-0.6-1.2l0,0l2.5,1.4
	c0.6,0.3,1,0.5,1.4,0.9l0.4-0.2c-0.3-0.5-0.8-1.5-1.4-2.6c-0.2-0.3-0.3-0.7-0.5-1c-0.1-0.3-0.1-0.4,0.5-0.7l-0.1-0.3L28,5l0.1,0.3
	c0.7-0.3,0.7-0.3,0.8-0.1c0.1,0.2,0.4,0.7,0.8,1.6l0.5,0.9l0,0L27,5.8c-0.1-0.1-0.2-0.1-0.3-0.2l-1.3,0.6l0.1,0.3
	c0.6-0.2,0.6-0.2,0.7-0.1c0.1,0.2,0.4,0.7,0.8,1.6c0.5,0.9,0.7,1.4,0.8,1.6c0.1,0.2,0,0.2-0.5,0.5L27.5,10.5z M34.2,5.8
	c0.2,0.4,0.4,1,0.5,1.3c0.5-0.1,1-0.1,1.5-0.2c1.1-0.3,1.6-1.1,1.3-2C37.4,4.3,37,4.1,36.2,4L35,4c-0.5,0-0.7-0.2-0.8-0.5
	c-0.1-0.4,0.2-0.9,0.8-1.1c0.6-0.2,1.1,0,1.5,0.7l0.3-0.1c-0.1-0.3-0.2-0.6-0.3-0.9c0-0.1-0.1-0.2-0.1-0.3c-0.4,0-0.8,0.1-1.3,0.2
	c-1,0.3-1.5,1.1-1.3,1.9c0.2,0.5,0.4,0.9,1.7,0.9l0.6,0c0.5,0,0.9,0.1,1,0.5c0.1,0.4-0.1,0.9-0.8,1.2c-0.7,0.2-1.2-0.2-1.7-0.9
	L34.2,5.8z M38.3,6.2l3.7-0.8C42,5.1,42,4.4,42,4.1l-0.3,0l0,0.5c0,0.5-0.1,0.6-0.7,0.8l-1.1,0.2c-0.1,0-0.1,0-0.2-0.1l-0.3-1.7
	c0-0.1,0-0.1,0.1-0.2l0.5-0.1c0.5-0.1,0.6,0,0.8,0.5l0.3-0.1c0-0.2-0.1-0.5-0.2-0.7c-0.1-0.3-0.1-0.5-0.1-0.8l-0.3,0.1
	c0,0.5,0,0.6-0.7,0.8l-0.2,0c-0.2,0-0.2,0-0.2-0.1l-0.3-1.5c0-0.1,0-0.1,0.1-0.2l0.6-0.1C40.5,1.1,40.6,1.2,41,2l0.3-0.1
	c-0.1-0.2-0.3-0.9-0.4-1.2c-0.3,0.1-0.6,0.2-1,0.3l-2.5,0.5l0.1,0.3c0.6-0.1,0.7-0.1,0.7,0.1c0.1,0.2,0.2,0.8,0.4,1.8
	c0.2,1,0.3,1.6,0.4,1.8c0,0.2,0,0.2-0.6,0.4L38.3,6.2z M42.6,5.2L44.9,5l0-0.3c-0.7,0-0.7,0-0.8-0.2c0-0.2-0.1-0.4-0.2-1.6
	c0-0.1,0-0.1,0.3-0.1c0.3,0,0.3,0,0.4,0l1.7,2l1.2-0.1l0-0.3c-0.3,0-0.4,0-0.7-0.4l-1.3-1.3c-0.1-0.1-0.1-0.1-0.1-0.2
	c0-0.1,1.1-0.3,1-1.3c0-0.4-0.2-0.7-0.5-0.8c-0.3-0.2-0.6-0.2-1.1-0.2l-2.6,0.3l0,0.3c0.7,0,0.7,0,0.8,0.2c0,0.2,0.1,0.8,0.2,1.8
	c0.1,1,0.2,1.6,0.2,1.8c0,0.2,0,0.2-0.7,0.3L42.6,5.2z M43.7,0.8c0-0.2,0-0.2,0.5-0.2c0.7-0.1,1.2,0.3,1.3,0.8c0,0.4-0.1,1-1.2,1.1
	c-0.4,0-0.5,0-0.5-0.1L43.7,0.8z M46.6,0.4c0.5,0,0.6,0,0.9,0.6c0.4,0.7,1.5,3.5,1.6,3.9h0.4c0.1-0.6,0.2-0.9,1.3-3.7
	c0.3-0.8,0.4-0.9,0.7-1h0.2l0-0.3l-1.8,0l0,0.3c0.6,0,0.7,0,0.7,0.2c0,0.2-0.3,1.1-0.6,1.9l-0.5,1.4L49,2.5
	c-0.4-0.9-0.7-1.8-0.7-1.9c0-0.1,0.1-0.2,0.4-0.2l0.3,0l0-0.3l-2.3,0L46.6,0.4z M51.9,4.8L54.3,5l0-0.3c-0.7-0.1-0.8-0.1-0.8-0.3
	c0-0.2,0-0.8,0.1-1.8c0.1-1.1,0.1-1.6,0.2-1.8c0-0.2,0.1-0.2,0.8-0.2l0-0.3l-2.4-0.2l0,0.3C53,0.5,53,0.5,53,0.7
	c0,0.2,0,0.8-0.1,1.8c-0.1,1-0.1,1.6-0.2,1.8c0,0.2-0.1,0.2-0.8,0.2L51.9,4.8z M58.9,4.4c-0.5,0.5-1.1,0.8-1.8,0.7
	c-0.8-0.1-1.4-0.9-1.2-2.3c0.2-1.3,0.9-2,1.8-1.9c0.8,0.1,1.1,0.6,1.2,1.5l0.3,0c0-0.3,0-0.9,0-1.3c-0.4-0.2-1-0.4-1.4-0.4
	c-1.7-0.3-2.6,0.8-2.8,2.1c-0.3,1.7,0.8,2.6,1.8,2.8c0.9,0.1,1.6-0.2,2.3-0.8L58.9,4.4z M59.1,5.8l3.7,1c0.1-0.3,0.3-0.9,0.5-1.2
	l-0.3-0.2l-0.3,0.4c-0.3,0.4-0.4,0.5-1,0.4l-1.1-0.3c-0.1,0-0.1-0.1-0.1-0.2L61.1,4c0-0.1,0.1-0.1,0.2-0.1l0.5,0.1
	c0.5,0.1,0.6,0.3,0.5,0.8l0.3,0.1c0-0.2,0.1-0.5,0.2-0.8c0.1-0.3,0.2-0.5,0.2-0.7l-0.3-0.1c-0.2,0.5-0.3,0.6-1,0.4l-0.2-0.1
	c-0.2,0-0.2-0.1-0.2-0.2L61.6,2c0-0.1,0.1-0.1,0.2-0.1L62.4,2c0.9,0.2,1,0.4,1,1.3l0.3,0c0-0.2,0.1-1,0.2-1.3c-0.3,0-0.7-0.1-1-0.2
	l-2.5-0.7l-0.1,0.3c0.6,0.2,0.6,0.2,0.6,0.4c0,0.2-0.2,0.8-0.5,1.8c-0.3,1-0.4,1.5-0.5,1.8c-0.1,0.2-0.1,0.2-0.7,0.1L59.1,5.8z
	 M64.1,5.6c-0.1,0.4-0.3,1-0.4,1.4c0.5,0.2,0.9,0.6,1.3,0.7c1,0.4,1.9,0.1,2.3-0.7c0.2-0.6,0.1-1.1-0.5-1.6l-0.9-0.8
	c-0.4-0.3-0.5-0.6-0.4-0.9c0.1-0.4,0.7-0.6,1.3-0.4c0.6,0.2,0.9,0.6,0.7,1.5l0.3,0.1C67.8,4.6,67.9,4.3,68,4c0-0.1,0.1-0.2,0.1-0.3
	c-0.3-0.2-0.7-0.4-1.2-0.6c-1-0.4-1.9-0.1-2.2,0.8c-0.2,0.5-0.2,0.9,0.8,1.7L66,5.9c0.4,0.3,0.7,0.6,0.5,1c-0.1,0.4-0.7,0.7-1.4,0.4
	c-0.7-0.3-0.8-0.9-0.7-1.7L64.1,5.6z M69.9,6.6c-0.2-0.1-0.5,0-0.6,0.2c-0.1,0.2,0,0.5,0.2,0.6c0.2,0.1,0.5,0,0.6-0.2
	C70.2,7,70.1,6.7,69.9,6.6 M71.9,5.7c0.6,0.4,0.6,0.4,0.5,0.6c-0.1,0.2-0.4,0.7-1.2,2.2c-0.6,1.1-0.3,2,0.7,2.5
	c1.5,0.9,2.1,0.1,2.6-0.8c0.7-1.3,1-1.7,1.2-1.9C75.8,8,75.9,8,76.5,8.3l0.2-0.2l-1.7-1l-0.1,0.3c0.6,0.4,0.6,0.5,0.6,0.6
	c-0.1,0.2-0.4,0.7-0.9,1.6c-0.7,1.2-1.1,1.6-2.2,1c-0.9-0.5-0.6-1.3-0.4-1.8c0.9-1.5,1.1-1.9,1.3-2.1c0.1-0.1,0.2-0.1,0.8,0.2
	l0.2-0.2l-2-1.2L71.9,5.7z M75.4,11.2c-0.2,0.4-0.6,0.9-0.7,1.2c0.4,0.3,0.7,0.8,1.1,1.1c0.9,0.6,1.8,0.6,2.4-0.1
	c0.4-0.5,0.4-1-0.1-1.6l-0.7-1c-0.3-0.4-0.3-0.7-0.1-0.9c0.3-0.3,0.8-0.4,1.3,0c0.5,0.4,0.7,0.9,0.3,1.6l0.3,0.2
	c0.2-0.3,0.4-0.6,0.6-0.8c0.1-0.1,0.1-0.2,0.2-0.2c-0.2-0.3-0.6-0.6-1-0.9C78.1,9,77.1,9,76.6,9.8c-0.3,0.4-0.5,0.8,0.3,1.9l0.3,0.5
	c0.3,0.4,0.5,0.7,0.2,1.1c-0.3,0.3-0.8,0.5-1.4,0c-0.6-0.4-0.6-1.1-0.2-1.9L75.4,11.2z M77.6,14.7l1.3,1.2l0.2-0.2
	c-0.4-0.5-0.5-0.6-0.3-0.7c0-0.1,0.4-0.2,0.8-0.4c0.1-0.1,0.2-0.1,0.5,0.2c0.5,0.5,0.7,0.7,0.9,0.8c0,0,0,0.1,0,0.1
	c0,0.1-0.3,0.8-0.4,0.9c-0.1,0.1-0.2,0.1-0.7-0.3l-0.2,0.2l1.7,1.6l0.2-0.2c-0.4-0.4-0.4-0.5-0.2-0.9l1.2-3.4
	c0.1-0.2,0.2-0.6,0.4-0.8l-0.3-0.2c-0.2,0.1-0.3,0.2-0.8,0.4L79,14.5c-0.6,0.3-0.7,0.3-1.1,0L77.6,14.7z M80.2,14.4
	C80.1,14.3,80.1,14.3,80.2,14.4c0-0.1,0-0.1,0.1-0.1l1.7-0.8l-0.7,1.7c0,0,0,0.1-0.1,0.1c0,0,0,0-0.1,0L80.2,14.4z"/>
</svg>
