<?xml version="1.0" encoding="utf-8"?>
<!-- Generator: Adobe Illustrator 24.1.2, SVG Export Plug-In . SVG Version: 6.00 Build 0)  -->
<svg version="1.1" id="Layer_1" xmlns="http://www.w3.org/2000/svg" xmlns:xlink="http://www.w3.org/1999/xlink" x="0px" y="0px"
	 viewBox="0 0 200 17.3" style="enable-background:new 0 0 200 17.3;" xml:space="preserve">
<style type="text/css">
	.st0{fill:#2C4653;}
</style>
<g>
	<path class="st0" d="M11.2,5.9C10.9,3.9,9,3.6,7.4,3.6c-1.7,0-2.8,0.8-2.8,1.9c0,0.9,0.7,1.3,1.7,1.5l5.1,0.9
		c2.7,0.5,4.8,1.6,4.8,4.5c0,3-1.9,5.4-7.8,5.4c-3.7,0-8.4-0.5-8.5-5.5h4.6c0,2.2,2.1,2.6,3.9,2.6c1.9,0,3.2-0.6,3.2-2
		c0-1.2-0.9-1.6-2.6-1.8l-3.7-0.6C2.8,10,0.3,9.2,0.3,5.9c0-3.6,2.7-5,7.5-5c3.1,0,7.7,0.6,8,5.1L11.2,5.9"/>
	<path class="st0" d="M28.7,1.3H17.7v16h4.1v-5.9h5.1c1.3,0,2.2,0.6,2.2,2.8c0,1.7,0,2.3,0.4,3.1h4.5c-0.7-0.8-0.8-2.7-0.8-3.5
		c0-1.6-0.3-4-2.1-4.3v0c1.7-0.7,2.4-1.9,2.4-3.9C33.5,4,32.9,1.3,28.7,1.3z M27.2,8.4h-5.4v-4H27c1,0,2.2,0.4,2.2,2
		C29.2,7.8,28.2,8.4,27.2,8.4z"/>
	<path class="st0" d="M35.6,17.3h4.1v-16h-4.1V17.3z"/>
	<path class="st0" d="M48.3,17.3h4.1v-16h-4.1V17.3z"/>
	<path class="st0" d="M63.9,10.5c0-1.7-0.8-2.5-2.5-2.5c-1.7,0-3.2,0.9-3.2,3.5v5.8h-3.7v-12h3.6V7h0C58.8,6,60.6,5,62.8,5
		c1.9,0,4.9,0.8,4.9,4.3v8h-3.7L63.9,10.5"/>
	<path class="st0" d="M70.7,1.6h3.7v3.7h3v2.6h-3v5.6c0,0.9,0.3,1.3,1.2,1.3c0.7,0,1.2,0,1.8-0.1v2.6c-0.7,0.1-2.1,0.2-2.9,0.2
		c-3.5,0-3.9-1.4-3.9-3.6V7.9h-2.3V5.3h2.3L70.7,1.6"/>
	<path class="st0" d="M85.6,17.8c3.4,0,6-1.2,7-4h-4c-0.5,1-1.6,1.6-3.1,1.6c-2.5,0-3.6-1.8-3.6-2.9v0h10.9V12
		c0-4.5-2.4-7.2-7.3-7.2c-4.5,0-7.5,1.9-7.5,6.5C78.1,15.8,81.1,17.8,85.6,17.8z M89,10L89,10l-7,0v0c0-0.3,0.6-2.7,3.5-2.7
		C88.2,7.3,89,9.3,89,10z"/>
	<path class="st0" d="M94.2,5.3h3.6v2.4h0c1.3-1.8,2.4-2.7,4.5-2.7c0.4,0,0.9,0,1.3,0.1v3.7c-0.7-0.2-1.3-0.4-2-0.4
		c-2.5,0-3.7,1.4-3.7,3.7v5.2h-3.7L94.2,5.3"/>
	<path class="st0" d="M114.4,10.5c0-1.7-0.8-2.5-2.5-2.5c-1.7,0-3.2,0.9-3.2,3.5v5.8H105v-12h3.6V7h0c0.7-1,2.4-2.1,4.6-2.1
		c1.9,0,4.9,0.8,4.9,4.3v8h-3.7L114.4,10.5"/>
	<path class="st0" d="M126.9,4.8c-3,0-6.2,0.4-6.7,4.1h3.6c0.5-1.7,1.3-1.8,2.9-1.8c2.2,0,2.9,0.5,2.9,1.4c0,1-0.4,1.2-1.5,1.3
		l-3.9,0.3c-2.3,0.2-4.7,0.8-4.7,3.7c0,2.8,2.1,3.9,5,3.9c1.7,0,4-0.4,5.3-1.7c0,0.4,0.1,0.9,0.3,1.3h3.7c-0.3-0.6-0.4-1.4-0.4-2.4
		v-6C133.3,6.7,132.2,4.8,126.9,4.8z M127.6,12c0.7-0.1,1.5-0.2,2.2-0.5v1c0,2-2.1,3-4,3c-1.4,0-2.3-0.6-2.3-1.7s0.7-1.5,2-1.6
		L127.6,12z"/>
	<path class="st0" d="M136.6,1.6h3.7v3.7h3v2.6h-3v5.6c0,0.9,0.3,1.3,1.2,1.3c0.7,0,1.2,0,1.8-0.1v2.6c-0.7,0.1-2.1,0.2-2.9,0.2
		c-3.5,0-3.9-1.4-3.9-3.6V7.9h-2.3V5.3h2.3V1.6"/>
	<path class="st0" d="M148.5,3.8h-3.7V1h3.7V3.8z M148.5,17.3h-3.7v-12h3.7V17.3z"/>
	<path class="st0" d="M164.7,11.3c0-4.5-3-6.5-7.5-6.5c-4.5,0-7.5,1.9-7.5,6.5s3,6.5,7.5,6.5C161.7,17.8,164.7,15.8,164.7,11.3z
		 M160.8,11.3c0,2.4-1.3,3.7-3.6,3.7c-2.3,0-3.6-1.3-3.6-3.7s1.3-3.7,3.6-3.7C159.5,7.6,160.8,8.9,160.8,11.3z"/>
	<path class="st0" d="M175.2,10.5c0-1.7-0.8-2.5-2.5-2.5c-1.7,0-3.2,0.9-3.2,3.5v5.8h-3.7v-12h3.6V7h0c0.7-1,2.4-2.1,4.6-2.1
		c1.9,0,4.8,0.8,4.8,4.3v8h-3.7L175.2,10.5"/>
	<path class="st0" d="M187.7,4.8c-3,0-6.2,0.4-6.7,4.1h3.6c0.5-1.7,1.4-1.8,2.9-1.8c2.2,0,2.9,0.5,2.9,1.4c0,1-0.4,1.2-1.5,1.3
		l-3.9,0.3c-2.3,0.2-4.7,0.8-4.7,3.7c0,2.8,2.1,3.9,5,3.9c1.7,0,4-0.4,5.3-1.7c0,0.4,0.1,0.9,0.3,1.3h3.7c-0.3-0.6-0.4-1.4-0.4-2.4
		v-6C194.2,6.7,193,4.8,187.7,4.8z M188.4,12c0.7-0.1,1.5-0.2,2.2-0.5v1c0,2-2.1,3-4,3c-1.4,0-2.3-0.6-2.3-1.7s0.7-1.5,2-1.6
		L188.4,12z"/>
	<path class="st0" d="M196.3,17.3h3.7V1h-3.7V17.3z"/>
</g>
</svg>
