<?xml version="1.0" encoding="UTF-8"?>
<svg width="350" height="160" viewBox="0 0 350 160" version="1.1" xmlns="http://www.w3.org/2000/svg">
  <polygon class="tri t1" points="50 100, 75 140, 25 140"></polygon>
  <polygon class="tri t2" points="50 100, 100 100, 75 140"></polygon>
  <polygon class="tri t3" points="75 60, 100 100, 50 100"></polygon>
  <polygon class="tri t4" points="75 60, 100 100, 125 60"></polygon>
  <polygon class="tri t5" points="75 60, 100 20, 125 60"></polygon>
  <polygon class="tri t6" points="150 100, 100 100, 125 60"></polygon>
  <polygon class="tri t7" points="150 100, 100 100, 125 140"></polygon>
  <polygon class="tri t8" points="150 100, 175 140, 125 140"></polygon>
  <polygon class="tri t9" points="150 100, 175 140, 200 100"></polygon>
  <polygon class="tri t10" points="150 100, 175 60, 200 100"></polygon>
  <polygon class="tri t11" points="225 60, 175 60, 200 100"></polygon>
  <polygon class="tri t12" points="225 60, 175 60, 200 20"></polygon>
  <polygon class="tri t13" points="225 60, 250 100, 200 100"></polygon>
  <polygon class="tri t14" points="225 140, 250 100, 200 100"></polygon>
  <polygon class="tri t15" points="225 60, 250 100, 275 60"></polygon>
  <polygon class="tri t16" points="225 60, 250 20, 275 60"></polygon>
  <polygon class="tri t17" points="300 100, 250 100, 275 60"></polygon>
  <polygon class="tri t18" points="300 100, 250 100, 275 140"></polygon>
  <polygon class="tri t19" points="300 100, 325 140, 275 140"></polygon>
</svg>
