<?xml version="1.0" encoding="UTF-8" standalone="no"?>
<!DOCTYPE svg PUBLIC "-//W3C//DTD SVG 1.1//EN" "http://www.w3.org/Graphics/SVG/1.1/DTD/svg11.dtd">
<svg width="100%" height="100%" viewBox="0 0 32 16" version="1.1" xmlns="http://www.w3.org/2000/svg" xmlns:xlink="http://www.w3.org/1999/xlink" xml:space="preserve" xmlns:serif="http://www.serif.com/" style="fill-rule:evenodd;clip-rule:evenodd;stroke-linejoin:round;stroke-miterlimit:1.41421;">
    <g transform="matrix(-0.121713,0,-0,0.121713,67.1496,-26.2575)">
        <path d="M464.85,345.786C464.151,345.786 463.452,345.624 462.807,345.296C461.299,344.525 460.35,342.978 460.35,341.286L460.35,317.841L292.448,285.882C290.325,285.478 288.79,283.622 288.79,281.462C288.79,279.298 290.325,277.392 292.448,276.987L460.35,245.03L460.35,221.637C460.35,219.942 461.299,218.395 462.807,217.625C464.313,216.859 466.123,217 467.495,217.994L549.849,277.818C551.015,278.664 551.703,280.019 551.703,281.461C551.703,282.903 551.015,284.254 549.849,285.102L467.495,344.926C466.709,345.495 465.779,345.786 464.85,345.786ZM317.217,281.435L465.69,309.697C467.815,310.103 469.35,311.957 469.35,314.119L469.35,332.455L539.547,281.463L469.35,230.467L469.35,248.756C469.35,250.916 467.815,252.772 465.69,253.176L317.217,281.435Z" style="fill:white;fill-rule:nonzero;"/>
    </g>
</svg>
